solid OpenSCAD_Model
  facet normal 0.608795 0.793327 -0
    outer loop
      vertex 8.63746 10.2937 -29
      vertex 7.70743 11.0074 29
      vertex 8.63746 10.2937 29
    endloop
  endfacet
  facet normal 0.608795 0.793327 0
    outer loop
      vertex 7.70743 11.0074 29
      vertex 8.63746 10.2937 -29
      vertex 7.70743 11.0074 -29
    endloop
  endfacet
  facet normal -0.887009 0.461751 0
    outer loop
      vertex -12.1785 5.67893 -29
      vertex -11.6372 6.71875 29
      vertex -11.6372 6.71875 -29
    endloop
  endfacet
  facet normal -0.887009 0.461751 0
    outer loop
      vertex -11.6372 6.71875 29
      vertex -12.1785 5.67893 -29
      vertex -12.1785 5.67893 29
    endloop
  endfacet
  facet normal -0.887009 -0.461751 0
    outer loop
      vertex -11.6372 -6.71875 -29
      vertex -12.1785 -5.67893 29
      vertex -12.1785 -5.67893 -29
    endloop
  endfacet
  facet normal -0.887009 -0.461751 0
    outer loop
      vertex -12.1785 -5.67893 29
      vertex -11.6372 -6.71875 -29
      vertex -11.6372 -6.71875 29
    endloop
  endfacet
  facet normal 0.976283 0.216501 0
    outer loop
      vertex 13.2334 2.3334 29
      vertex 12.9796 3.47788 -29
      vertex 12.9796 3.47788 29
    endloop
  endfacet
  facet normal 0.976283 0.216501 0
    outer loop
      vertex 12.9796 3.47788 -29
      vertex 13.2334 2.3334 29
      vertex 13.2334 2.3334 -29
    endloop
  endfacet
  facet normal 0.953719 0.3007 0
    outer loop
      vertex 12.9796 3.47788 29
      vertex 12.6271 4.59589 -29
      vertex 12.6271 4.59589 29
    endloop
  endfacet
  facet normal 0.953719 0.3007 0
    outer loop
      vertex 12.6271 4.59589 -29
      vertex 12.9796 3.47788 29
      vertex 12.9796 3.47788 -29
    endloop
  endfacet
  facet normal 0.793327 0.608795 0
    outer loop
      vertex 11.0074 7.70743 29
      vertex 10.2937 8.63746 -29
      vertex 10.2937 8.63746 29
    endloop
  endfacet
  facet normal 0.793327 0.608795 0
    outer loop
      vertex 10.2937 8.63746 -29
      vertex 11.0074 7.70743 29
      vertex 11.0074 7.70743 -29
    endloop
  endfacet
  facet normal 0.537264 0.843414 -0
    outer loop
      vertex 7.70743 11.0074 -29
      vertex 6.71875 11.6372 29
      vertex 7.70743 11.0074 29
    endloop
  endfacet
  facet normal 0.537264 0.843414 0
    outer loop
      vertex 6.71875 11.6372 29
      vertex 7.70743 11.0074 -29
      vertex 6.71875 11.6372 -29
    endloop
  endfacet
  facet normal -0.608795 0.793327 0
    outer loop
      vertex -7.70743 11.0074 -29
      vertex -8.63746 10.2937 29
      vertex -7.70743 11.0074 29
    endloop
  endfacet
  facet normal -0.608795 0.793327 0
    outer loop
      vertex -8.63746 10.2937 29
      vertex -7.70743 11.0074 -29
      vertex -8.63746 10.2937 -29
    endloop
  endfacet
  facet normal 0.216501 -0.976283 0
    outer loop
      vertex 2.3334 -13.2334 -29
      vertex 3.47788 -12.9796 29
      vertex 2.3334 -13.2334 29
    endloop
  endfacet
  facet normal 0.216501 -0.976283 0
    outer loop
      vertex 3.47788 -12.9796 29
      vertex 2.3334 -13.2334 -29
      vertex 3.47788 -12.9796 -29
    endloop
  endfacet
  facet normal 0.675578 -0.737288 0
    outer loop
      vertex 8.63746 -10.2937 -29
      vertex 9.50175 -9.50175 29
      vertex 8.63746 -10.2937 29
    endloop
  endfacet
  facet normal 0.675578 -0.737288 0
    outer loop
      vertex 9.50175 -9.50175 29
      vertex 8.63746 -10.2937 -29
      vertex 9.50175 -9.50175 -29
    endloop
  endfacet
  facet normal -0.0435909 -0.999049 0
    outer loop
      vertex -1.17115 -13.3864 -29
      vertex 0 -13.4375 29
      vertex -1.17115 -13.3864 29
    endloop
  endfacet
  facet normal -0.0435909 -0.999049 -0
    outer loop
      vertex 0 -13.4375 29
      vertex -1.17115 -13.3864 -29
      vertex 0 -13.4375 -29
    endloop
  endfacet
  facet normal -0.537264 -0.843414 0
    outer loop
      vertex -7.70743 -11.0074 -29
      vertex -6.71875 -11.6372 29
      vertex -7.70743 -11.0074 29
    endloop
  endfacet
  facet normal -0.537264 -0.843414 -0
    outer loop
      vertex -6.71875 -11.6372 29
      vertex -7.70743 -11.0074 -29
      vertex -6.71875 -11.6372 -29
    endloop
  endfacet
  facet normal 0.991446 0.130515 0
    outer loop
      vertex 13.3864 1.17115 29
      vertex 13.2334 2.3334 -29
      vertex 13.2334 2.3334 29
    endloop
  endfacet
  facet normal 0.991446 0.130515 0
    outer loop
      vertex 13.2334 2.3334 -29
      vertex 13.3864 1.17115 29
      vertex 13.3864 1.17115 -29
    endloop
  endfacet
  facet normal 0.923883 0.382676 0
    outer loop
      vertex 12.6271 4.59589 29
      vertex 12.1785 5.67893 -29
      vertex 12.1785 5.67893 29
    endloop
  endfacet
  facet normal 0.923883 0.382676 0
    outer loop
      vertex 12.1785 5.67893 -29
      vertex 12.6271 4.59589 29
      vertex 12.6271 4.59589 -29
    endloop
  endfacet
  facet normal 0.887009 0.461751 0
    outer loop
      vertex 12.1785 5.67893 29
      vertex 11.6372 6.71875 -29
      vertex 11.6372 6.71875 29
    endloop
  endfacet
  facet normal 0.887009 0.461751 0
    outer loop
      vertex 11.6372 6.71875 -29
      vertex 12.1785 5.67893 29
      vertex 12.1785 5.67893 -29
    endloop
  endfacet
  facet normal 0.843414 0.537264 0
    outer loop
      vertex 11.6372 6.71875 29
      vertex 11.0074 7.70743 -29
      vertex 11.0074 7.70743 29
    endloop
  endfacet
  facet normal 0.843414 0.537264 0
    outer loop
      vertex 11.0074 7.70743 -29
      vertex 11.6372 6.71875 29
      vertex 11.6372 6.71875 -29
    endloop
  endfacet
  facet normal 0.737288 0.675578 0
    outer loop
      vertex 10.2937 8.63746 29
      vertex 9.50175 9.50175 -29
      vertex 9.50175 9.50175 29
    endloop
  endfacet
  facet normal 0.737288 0.675578 0
    outer loop
      vertex 9.50175 9.50175 -29
      vertex 10.2937 8.63746 29
      vertex 10.2937 8.63746 -29
    endloop
  endfacet
  facet normal 0.0435909 0.999049 -0
    outer loop
      vertex 1.17115 13.3864 -29
      vertex 0 13.4375 29
      vertex 1.17115 13.3864 29
    endloop
  endfacet
  facet normal 0.0435909 0.999049 0
    outer loop
      vertex 0 13.4375 29
      vertex 1.17115 13.3864 -29
      vertex 0 13.4375 -29
    endloop
  endfacet
  facet normal 0.3007 0.953719 -0
    outer loop
      vertex 4.59589 12.6271 -29
      vertex 3.47788 12.9796 29
      vertex 4.59589 12.6271 29
    endloop
  endfacet
  facet normal 0.3007 0.953719 0
    outer loop
      vertex 3.47788 12.9796 29
      vertex 4.59589 12.6271 -29
      vertex 3.47788 12.9796 -29
    endloop
  endfacet
  facet normal 0.461751 0.887009 -0
    outer loop
      vertex 6.71875 11.6372 -29
      vertex 5.67893 12.1785 29
      vertex 6.71875 11.6372 29
    endloop
  endfacet
  facet normal 0.461751 0.887009 0
    outer loop
      vertex 5.67893 12.1785 29
      vertex 6.71875 11.6372 -29
      vertex 5.67893 12.1785 -29
    endloop
  endfacet
  facet normal 0.216501 0.976283 -0
    outer loop
      vertex 3.47788 12.9796 -29
      vertex 2.3334 13.2334 29
      vertex 3.47788 12.9796 29
    endloop
  endfacet
  facet normal 0.216501 0.976283 0
    outer loop
      vertex 2.3334 13.2334 29
      vertex 3.47788 12.9796 -29
      vertex 2.3334 13.2334 -29
    endloop
  endfacet
  facet normal 0.130515 0.991446 -0
    outer loop
      vertex 2.3334 13.2334 -29
      vertex 1.17115 13.3864 29
      vertex 2.3334 13.2334 29
    endloop
  endfacet
  facet normal 0.130515 0.991446 0
    outer loop
      vertex 1.17115 13.3864 29
      vertex 2.3334 13.2334 -29
      vertex 1.17115 13.3864 -29
    endloop
  endfacet
  facet normal -0.999049 0.0435909 0
    outer loop
      vertex -13.4375 0 -29
      vertex -13.3864 1.17115 29
      vertex -13.3864 1.17115 -29
    endloop
  endfacet
  facet normal -0.999049 0.0435909 0
    outer loop
      vertex -13.3864 1.17115 29
      vertex -13.4375 0 -29
      vertex -13.4375 0 29
    endloop
  endfacet
  facet normal -0.953719 0.3007 0
    outer loop
      vertex -12.9796 3.47788 -29
      vertex -12.6271 4.59589 29
      vertex -12.6271 4.59589 -29
    endloop
  endfacet
  facet normal -0.953719 0.3007 0
    outer loop
      vertex -12.6271 4.59589 29
      vertex -12.9796 3.47788 -29
      vertex -12.9796 3.47788 29
    endloop
  endfacet
  facet normal -0.976283 0.216501 0
    outer loop
      vertex -13.2334 2.3334 -29
      vertex -12.9796 3.47788 29
      vertex -12.9796 3.47788 -29
    endloop
  endfacet
  facet normal -0.976283 0.216501 0
    outer loop
      vertex -12.9796 3.47788 29
      vertex -13.2334 2.3334 -29
      vertex -13.2334 2.3334 29
    endloop
  endfacet
  facet normal -0.991446 0.130515 0
    outer loop
      vertex -13.3864 1.17115 -29
      vertex -13.2334 2.3334 29
      vertex -13.2334 2.3334 -29
    endloop
  endfacet
  facet normal -0.991446 0.130515 0
    outer loop
      vertex -13.2334 2.3334 29
      vertex -13.3864 1.17115 -29
      vertex -13.3864 1.17115 29
    endloop
  endfacet
  facet normal -0.737288 0.675578 0
    outer loop
      vertex -10.2937 8.63746 -29
      vertex -9.50175 9.50175 29
      vertex -9.50175 9.50175 -29
    endloop
  endfacet
  facet normal -0.737288 0.675578 0
    outer loop
      vertex -9.50175 9.50175 29
      vertex -10.2937 8.63746 -29
      vertex -10.2937 8.63746 29
    endloop
  endfacet
  facet normal -0.843414 0.537264 0
    outer loop
      vertex -11.6372 6.71875 -29
      vertex -11.0074 7.70743 29
      vertex -11.0074 7.70743 -29
    endloop
  endfacet
  facet normal -0.843414 0.537264 0
    outer loop
      vertex -11.0074 7.70743 29
      vertex -11.6372 6.71875 -29
      vertex -11.6372 6.71875 29
    endloop
  endfacet
  facet normal -0.793327 0.608795 0
    outer loop
      vertex -11.0074 7.70743 -29
      vertex -10.2937 8.63746 29
      vertex -10.2937 8.63746 -29
    endloop
  endfacet
  facet normal -0.793327 0.608795 0
    outer loop
      vertex -10.2937 8.63746 29
      vertex -11.0074 7.70743 -29
      vertex -11.0074 7.70743 29
    endloop
  endfacet
  facet normal -0.0435909 0.999049 0
    outer loop
      vertex 0 13.4375 -29
      vertex -1.17115 13.3864 29
      vertex 0 13.4375 29
    endloop
  endfacet
  facet normal -0.0435909 0.999049 0
    outer loop
      vertex -1.17115 13.3864 29
      vertex 0 13.4375 -29
      vertex -1.17115 13.3864 -29
    endloop
  endfacet
  facet normal -0.216501 0.976283 0
    outer loop
      vertex -2.3334 13.2334 -29
      vertex -3.47788 12.9796 29
      vertex -2.3334 13.2334 29
    endloop
  endfacet
  facet normal -0.216501 0.976283 0
    outer loop
      vertex -3.47788 12.9796 29
      vertex -2.3334 13.2334 -29
      vertex -3.47788 12.9796 -29
    endloop
  endfacet
  facet normal -0.130515 0.991446 0
    outer loop
      vertex -1.17115 13.3864 -29
      vertex -2.3334 13.2334 29
      vertex -1.17115 13.3864 29
    endloop
  endfacet
  facet normal -0.130515 0.991446 0
    outer loop
      vertex -2.3334 13.2334 29
      vertex -1.17115 13.3864 -29
      vertex -2.3334 13.2334 -29
    endloop
  endfacet
  facet normal -0.461751 0.887009 0
    outer loop
      vertex -5.67893 12.1785 -29
      vertex -6.71875 11.6372 29
      vertex -5.67893 12.1785 29
    endloop
  endfacet
  facet normal -0.461751 0.887009 0
    outer loop
      vertex -6.71875 11.6372 29
      vertex -5.67893 12.1785 -29
      vertex -6.71875 11.6372 -29
    endloop
  endfacet
  facet normal -0.537264 0.843414 0
    outer loop
      vertex -6.71875 11.6372 -29
      vertex -7.70743 11.0074 29
      vertex -6.71875 11.6372 29
    endloop
  endfacet
  facet normal -0.537264 0.843414 0
    outer loop
      vertex -7.70743 11.0074 29
      vertex -6.71875 11.6372 -29
      vertex -7.70743 11.0074 -29
    endloop
  endfacet
  facet normal -0.675578 0.737288 0
    outer loop
      vertex -8.63746 10.2937 -29
      vertex -9.50175 9.50175 29
      vertex -8.63746 10.2937 29
    endloop
  endfacet
  facet normal -0.675578 0.737288 0
    outer loop
      vertex -9.50175 9.50175 29
      vertex -8.63746 10.2937 -29
      vertex -9.50175 9.50175 -29
    endloop
  endfacet
  facet normal 0.999049 0.0435909 0
    outer loop
      vertex 13.4375 0 29
      vertex 13.3864 1.17115 -29
      vertex 13.3864 1.17115 29
    endloop
  endfacet
  facet normal 0.999049 0.0435909 0
    outer loop
      vertex 13.3864 1.17115 -29
      vertex 13.4375 0 29
      vertex 13.4375 0 -29
    endloop
  endfacet
  facet normal 0.0435909 -0.999049 0
    outer loop
      vertex 0 -13.4375 -29
      vertex 1.17115 -13.3864 29
      vertex 0 -13.4375 29
    endloop
  endfacet
  facet normal 0.0435909 -0.999049 0
    outer loop
      vertex 1.17115 -13.3864 29
      vertex 0 -13.4375 -29
      vertex 1.17115 -13.3864 -29
    endloop
  endfacet
  facet normal 0.843414 -0.537264 0
    outer loop
      vertex 11.0074 -7.70743 29
      vertex 11.6372 -6.71875 -29
      vertex 11.6372 -6.71875 29
    endloop
  endfacet
  facet normal 0.843414 -0.537264 0
    outer loop
      vertex 11.6372 -6.71875 -29
      vertex 11.0074 -7.70743 29
      vertex 11.0074 -7.70743 -29
    endloop
  endfacet
  facet normal 0.130515 -0.991446 0
    outer loop
      vertex 1.17115 -13.3864 -29
      vertex 2.3334 -13.2334 29
      vertex 1.17115 -13.3864 29
    endloop
  endfacet
  facet normal 0.130515 -0.991446 0
    outer loop
      vertex 2.3334 -13.2334 29
      vertex 1.17115 -13.3864 -29
      vertex 2.3334 -13.2334 -29
    endloop
  endfacet
  facet normal 0.382676 -0.923883 0
    outer loop
      vertex 4.59589 -12.6271 -29
      vertex 5.67893 -12.1785 29
      vertex 4.59589 -12.6271 29
    endloop
  endfacet
  facet normal 0.382676 -0.923883 0
    outer loop
      vertex 5.67893 -12.1785 29
      vertex 4.59589 -12.6271 -29
      vertex 5.67893 -12.1785 -29
    endloop
  endfacet
  facet normal 0.461751 -0.887009 0
    outer loop
      vertex 5.67893 -12.1785 -29
      vertex 6.71875 -11.6372 29
      vertex 5.67893 -12.1785 29
    endloop
  endfacet
  facet normal 0.461751 -0.887009 0
    outer loop
      vertex 6.71875 -11.6372 29
      vertex 5.67893 -12.1785 -29
      vertex 6.71875 -11.6372 -29
    endloop
  endfacet
  facet normal 0.608795 -0.793327 0
    outer loop
      vertex 7.70743 -11.0074 -29
      vertex 8.63746 -10.2937 29
      vertex 7.70743 -11.0074 29
    endloop
  endfacet
  facet normal 0.608795 -0.793327 0
    outer loop
      vertex 8.63746 -10.2937 29
      vertex 7.70743 -11.0074 -29
      vertex 8.63746 -10.2937 -29
    endloop
  endfacet
  facet normal -0.216501 -0.976283 0
    outer loop
      vertex -3.47788 -12.9796 -29
      vertex -2.3334 -13.2334 29
      vertex -3.47788 -12.9796 29
    endloop
  endfacet
  facet normal -0.216501 -0.976283 -0
    outer loop
      vertex -2.3334 -13.2334 29
      vertex -3.47788 -12.9796 -29
      vertex -2.3334 -13.2334 -29
    endloop
  endfacet
  facet normal -0.130515 -0.991446 0
    outer loop
      vertex -2.3334 -13.2334 -29
      vertex -1.17115 -13.3864 29
      vertex -2.3334 -13.2334 29
    endloop
  endfacet
  facet normal -0.130515 -0.991446 -0
    outer loop
      vertex -1.17115 -13.3864 29
      vertex -2.3334 -13.2334 -29
      vertex -1.17115 -13.3864 -29
    endloop
  endfacet
  facet normal -0.461751 -0.887009 0
    outer loop
      vertex -6.71875 -11.6372 -29
      vertex -5.67893 -12.1785 29
      vertex -6.71875 -11.6372 29
    endloop
  endfacet
  facet normal -0.461751 -0.887009 -0
    outer loop
      vertex -5.67893 -12.1785 29
      vertex -6.71875 -11.6372 -29
      vertex -5.67893 -12.1785 -29
    endloop
  endfacet
  facet normal -0.675578 -0.737288 0
    outer loop
      vertex -9.50175 -9.50175 -29
      vertex -8.63746 -10.2937 29
      vertex -9.50175 -9.50175 29
    endloop
  endfacet
  facet normal -0.675578 -0.737288 -0
    outer loop
      vertex -8.63746 -10.2937 29
      vertex -9.50175 -9.50175 -29
      vertex -8.63746 -10.2937 -29
    endloop
  endfacet
  facet normal -0.976283 -0.216501 0
    outer loop
      vertex -12.9796 -3.47788 -29
      vertex -13.2334 -2.3334 29
      vertex -13.2334 -2.3334 -29
    endloop
  endfacet
  facet normal -0.976283 -0.216501 0
    outer loop
      vertex -13.2334 -2.3334 29
      vertex -12.9796 -3.47788 -29
      vertex -12.9796 -3.47788 29
    endloop
  endfacet
  facet normal -0.999049 -0.0435909 0
    outer loop
      vertex -13.3864 -1.17115 -29
      vertex -13.4375 0 29
      vertex -13.4375 0 -29
    endloop
  endfacet
  facet normal -0.999049 -0.0435909 0
    outer loop
      vertex -13.4375 0 29
      vertex -13.3864 -1.17115 -29
      vertex -13.3864 -1.17115 29
    endloop
  endfacet
  facet normal 0 0 -1
    outer loop
      vertex 8.4375 0 -29
      vertex 13.4375 0 -29
      vertex 13.3864 -1.17115 -29
    endloop
  endfacet
  facet normal 0 0 -1
    outer loop
      vertex 8.40539 -0.735376 -29
      vertex 13.3864 -1.17115 -29
      vertex 13.2334 -2.3334 -29
    endloop
  endfacet
  facet normal 0 0 -1
    outer loop
      vertex 13.4375 0 -29
      vertex 8.4375 0 -29
      vertex 13.3864 1.17115 -29
    endloop
  endfacet
  facet normal 0 0 -1
    outer loop
      vertex 8.30931 -1.46516 -29
      vertex 13.2334 -2.3334 -29
      vertex 12.9796 -3.47788 -29
    endloop
  endfacet
  facet normal 0 0 -1
    outer loop
      vertex 8.40539 0.735376 -29
      vertex 13.3864 1.17115 -29
      vertex 8.4375 0 -29
    endloop
  endfacet
  facet normal 0 0 -1
    outer loop
      vertex 8.15 -2.18379 -29
      vertex 12.9796 -3.47788 -29
      vertex 12.6271 -4.59589 -29
    endloop
  endfacet
  facet normal -0 0 -1
    outer loop
      vertex 13.3864 1.17115 -29
      vertex 8.40539 0.735376 -29
      vertex 13.2334 2.3334 -29
    endloop
  endfacet
  facet normal 0 0 -1
    outer loop
      vertex 7.92866 -2.88579 -29
      vertex 12.6271 -4.59589 -29
      vertex 12.1785 -5.67893 -29
    endloop
  endfacet
  facet normal 0 0 -1
    outer loop
      vertex 8.30931 1.46516 -29
      vertex 13.2334 2.3334 -29
      vertex 8.40539 0.735376 -29
    endloop
  endfacet
  facet normal 0 0 -1
    outer loop
      vertex 7.64697 -3.56584 -29
      vertex 12.1785 -5.67893 -29
      vertex 11.6372 -6.71875 -29
    endloop
  endfacet
  facet normal -0 0 -1
    outer loop
      vertex 13.2334 2.3334 -29
      vertex 8.30931 1.46516 -29
      vertex 12.9796 3.47788 -29
    endloop
  endfacet
  facet normal 0 0 -1
    outer loop
      vertex 7.30709 -4.21875 -29
      vertex 11.6372 -6.71875 -29
      vertex 11.0074 -7.70743 -29
    endloop
  endfacet
  facet normal 0 0 -1
    outer loop
      vertex 8.15 2.18379 -29
      vertex 12.9796 3.47788 -29
      vertex 8.30931 1.46516 -29
    endloop
  endfacet
  facet normal 0 0 -1
    outer loop
      vertex 6.9116 -4.83955 -29
      vertex 11.0074 -7.70743 -29
      vertex 10.2937 -8.63746 -29
    endloop
  endfacet
  facet normal -0 0 -1
    outer loop
      vertex 12.9796 3.47788 -29
      vertex 8.15 2.18379 -29
      vertex 12.6271 4.59589 -29
    endloop
  endfacet
  facet normal 0 0 -1
    outer loop
      vertex 6.4635 -5.42352 -29
      vertex 10.2937 -8.63746 -29
      vertex 9.50175 -9.50175 -29
    endloop
  endfacet
  facet normal 0 0 -1
    outer loop
      vertex 7.92866 2.88579 -29
      vertex 12.6271 4.59589 -29
      vertex 8.15 2.18379 -29
    endloop
  endfacet
  facet normal 0 0 -1
    outer loop
      vertex 5.96621 -5.96621 -29
      vertex 9.50175 -9.50175 -29
      vertex 8.63746 -10.2937 -29
    endloop
  endfacet
  facet normal -0 0 -1
    outer loop
      vertex 12.6271 4.59589 -29
      vertex 7.92866 2.88579 -29
      vertex 12.1785 5.67893 -29
    endloop
  endfacet
  facet normal 0 0 -1
    outer loop
      vertex 7.64697 3.56584 -29
      vertex 12.1785 5.67893 -29
      vertex 7.92866 2.88579 -29
    endloop
  endfacet
  facet normal 0 0 -1
    outer loop
      vertex 13.3864 -1.17115 -29
      vertex 8.40539 -0.735376 -29
      vertex 8.4375 0 -29
    endloop
  endfacet
  facet normal 0 0 -1
    outer loop
      vertex 13.2334 -2.3334 -29
      vertex 8.30931 -1.46516 -29
      vertex 8.40539 -0.735376 -29
    endloop
  endfacet
  facet normal 0 0 -1
    outer loop
      vertex 12.9796 -3.47788 -29
      vertex 8.15 -2.18379 -29
      vertex 8.30931 -1.46516 -29
    endloop
  endfacet
  facet normal 0 0 -1
    outer loop
      vertex 12.6271 -4.59589 -29
      vertex 7.92866 -2.88579 -29
      vertex 8.15 -2.18379 -29
    endloop
  endfacet
  facet normal 0 0 -1
    outer loop
      vertex 5.42352 -6.4635 -29
      vertex 8.63746 -10.2937 -29
      vertex 7.70743 -11.0074 -29
    endloop
  endfacet
  facet normal 0 0 -1
    outer loop
      vertex 12.1785 -5.67893 -29
      vertex 7.64697 -3.56584 -29
      vertex 7.92866 -2.88579 -29
    endloop
  endfacet
  facet normal 0 0 -1
    outer loop
      vertex 11.6372 -6.71875 -29
      vertex 7.30709 -4.21875 -29
      vertex 7.64697 -3.56584 -29
    endloop
  endfacet
  facet normal 0 0 -1
    outer loop
      vertex 11.0074 -7.70743 -29
      vertex 6.9116 -4.83955 -29
      vertex 7.30709 -4.21875 -29
    endloop
  endfacet
  facet normal 0 0 -1
    outer loop
      vertex 4.83955 -6.9116 -29
      vertex 7.70743 -11.0074 -29
      vertex 6.71875 -11.6372 -29
    endloop
  endfacet
  facet normal 0 0 -1
    outer loop
      vertex 10.2937 -8.63746 -29
      vertex 6.4635 -5.42352 -29
      vertex 6.9116 -4.83955 -29
    endloop
  endfacet
  facet normal 0 0 -1
    outer loop
      vertex 9.50175 -9.50175 -29
      vertex 5.96621 -5.96621 -29
      vertex 6.4635 -5.42352 -29
    endloop
  endfacet
  facet normal 0 0 -1
    outer loop
      vertex 4.21875 -7.30709 -29
      vertex 6.71875 -11.6372 -29
      vertex 5.67893 -12.1785 -29
    endloop
  endfacet
  facet normal 0 0 -1
    outer loop
      vertex 8.63746 -10.2937 -29
      vertex 5.42352 -6.4635 -29
      vertex 5.96621 -5.96621 -29
    endloop
  endfacet
  facet normal 0 0 -1
    outer loop
      vertex 7.70743 -11.0074 -29
      vertex 4.83955 -6.9116 -29
      vertex 5.42352 -6.4635 -29
    endloop
  endfacet
  facet normal 0 0 -1
    outer loop
      vertex 3.56584 -7.64697 -29
      vertex 5.67893 -12.1785 -29
      vertex 4.59589 -12.6271 -29
    endloop
  endfacet
  facet normal 0 0 -1
    outer loop
      vertex 6.71875 -11.6372 -29
      vertex 4.21875 -7.30709 -29
      vertex 4.83955 -6.9116 -29
    endloop
  endfacet
  facet normal 0 0 -1
    outer loop
      vertex 5.67893 -12.1785 -29
      vertex 3.56584 -7.64697 -29
      vertex 4.21875 -7.30709 -29
    endloop
  endfacet
  facet normal 0 0 -1
    outer loop
      vertex 2.88579 -7.92866 -29
      vertex 4.59589 -12.6271 -29
      vertex 3.47788 -12.9796 -29
    endloop
  endfacet
  facet normal 0 0 -1
    outer loop
      vertex 4.59589 -12.6271 -29
      vertex 2.88579 -7.92866 -29
      vertex 3.56584 -7.64697 -29
    endloop
  endfacet
  facet normal 0 0 -1
    outer loop
      vertex 2.18379 -8.15 -29
      vertex 3.47788 -12.9796 -29
      vertex 2.3334 -13.2334 -29
    endloop
  endfacet
  facet normal 0 0 -1
    outer loop
      vertex 3.47788 -12.9796 -29
      vertex 2.18379 -8.15 -29
      vertex 2.88579 -7.92866 -29
    endloop
  endfacet
  facet normal 0 0 -1
    outer loop
      vertex 2.3334 -13.2334 -29
      vertex 1.46516 -8.30931 -29
      vertex 2.18379 -8.15 -29
    endloop
  endfacet
  facet normal 0 0 -1
    outer loop
      vertex 1.17115 -13.3864 -29
      vertex 1.46516 -8.30931 -29
      vertex 2.3334 -13.2334 -29
    endloop
  endfacet
  facet normal 0 0 -1
    outer loop
      vertex 1.17115 -13.3864 -29
      vertex 0.735376 -8.40539 -29
      vertex 1.46516 -8.30931 -29
    endloop
  endfacet
  facet normal 0 0 -1
    outer loop
      vertex 0 -13.4375 -29
      vertex 0.735376 -8.40539 -29
      vertex 1.17115 -13.3864 -29
    endloop
  endfacet
  facet normal 0 0 -1
    outer loop
      vertex 0 -13.4375 -29
      vertex 0 -8.4375 -29
      vertex 0.735376 -8.40539 -29
    endloop
  endfacet
  facet normal 0 0 -1
    outer loop
      vertex 0 -13.4375 -29
      vertex -0.735376 -8.40539 -29
      vertex 0 -8.4375 -29
    endloop
  endfacet
  facet normal 0 0 -1
    outer loop
      vertex -1.17115 -13.3864 -29
      vertex -0.735376 -8.40539 -29
      vertex 0 -13.4375 -29
    endloop
  endfacet
  facet normal 0 0 -1
    outer loop
      vertex -1.17115 -13.3864 -29
      vertex -1.46516 -8.30931 -29
      vertex -0.735376 -8.40539 -29
    endloop
  endfacet
  facet normal 0 0 -1
    outer loop
      vertex -2.3334 -13.2334 -29
      vertex -1.46516 -8.30931 -29
      vertex -1.17115 -13.3864 -29
    endloop
  endfacet
  facet normal -0 0 -1
    outer loop
      vertex -1.46516 -8.30931 -29
      vertex -2.3334 -13.2334 -29
      vertex -2.18379 -8.15 -29
    endloop
  endfacet
  facet normal 0 0 -1
    outer loop
      vertex -3.47788 -12.9796 -29
      vertex -2.18379 -8.15 -29
      vertex -2.3334 -13.2334 -29
    endloop
  endfacet
  facet normal -0 0 -1
    outer loop
      vertex -2.18379 -8.15 -29
      vertex -3.47788 -12.9796 -29
      vertex -2.88579 -7.92866 -29
    endloop
  endfacet
  facet normal 0 0 -1
    outer loop
      vertex -4.59589 -12.6271 -29
      vertex -2.88579 -7.92866 -29
      vertex -3.47788 -12.9796 -29
    endloop
  endfacet
  facet normal -0 0 -1
    outer loop
      vertex -2.88579 -7.92866 -29
      vertex -4.59589 -12.6271 -29
      vertex -3.56584 -7.64697 -29
    endloop
  endfacet
  facet normal 0 0 -1
    outer loop
      vertex -5.67893 -12.1785 -29
      vertex -3.56584 -7.64697 -29
      vertex -4.59589 -12.6271 -29
    endloop
  endfacet
  facet normal -0 0 -1
    outer loop
      vertex -3.56584 -7.64697 -29
      vertex -5.67893 -12.1785 -29
      vertex -4.21875 -7.30709 -29
    endloop
  endfacet
  facet normal 0 0 -1
    outer loop
      vertex -6.71875 -11.6372 -29
      vertex -4.21875 -7.30709 -29
      vertex -5.67893 -12.1785 -29
    endloop
  endfacet
  facet normal -0 0 -1
    outer loop
      vertex -4.21875 -7.30709 -29
      vertex -6.71875 -11.6372 -29
      vertex -4.83955 -6.9116 -29
    endloop
  endfacet
  facet normal 0 0 -1
    outer loop
      vertex -7.70743 -11.0074 -29
      vertex -4.83955 -6.9116 -29
      vertex -6.71875 -11.6372 -29
    endloop
  endfacet
  facet normal -0 0 -1
    outer loop
      vertex -4.83955 -6.9116 -29
      vertex -7.70743 -11.0074 -29
      vertex -5.42352 -6.4635 -29
    endloop
  endfacet
  facet normal 0 0 -1
    outer loop
      vertex -8.63746 -10.2937 -29
      vertex -5.42352 -6.4635 -29
      vertex -7.70743 -11.0074 -29
    endloop
  endfacet
  facet normal -0 0 -1
    outer loop
      vertex -5.42352 -6.4635 -29
      vertex -8.63746 -10.2937 -29
      vertex -5.96621 -5.96621 -29
    endloop
  endfacet
  facet normal 0 0 -1
    outer loop
      vertex -9.50175 -9.50175 -29
      vertex -5.96621 -5.96621 -29
      vertex -8.63746 -10.2937 -29
    endloop
  endfacet
  facet normal -0 0 -1
    outer loop
      vertex -5.96621 -5.96621 -29
      vertex -9.50175 -9.50175 -29
      vertex -6.4635 -5.42352 -29
    endloop
  endfacet
  facet normal 0 0 -1
    outer loop
      vertex -10.2937 -8.63746 -29
      vertex -6.4635 -5.42352 -29
      vertex -9.50175 -9.50175 -29
    endloop
  endfacet
  facet normal -0 0 -1
    outer loop
      vertex -6.4635 -5.42352 -29
      vertex -10.2937 -8.63746 -29
      vertex -6.9116 -4.83955 -29
    endloop
  endfacet
  facet normal 0 0 -1
    outer loop
      vertex -11.0074 -7.70743 -29
      vertex -6.9116 -4.83955 -29
      vertex -10.2937 -8.63746 -29
    endloop
  endfacet
  facet normal -0 0 -1
    outer loop
      vertex -6.9116 -4.83955 -29
      vertex -11.0074 -7.70743 -29
      vertex -7.30709 -4.21875 -29
    endloop
  endfacet
  facet normal 0 0 -1
    outer loop
      vertex -11.6372 -6.71875 -29
      vertex -7.30709 -4.21875 -29
      vertex -11.0074 -7.70743 -29
    endloop
  endfacet
  facet normal 0 0 -1
    outer loop
      vertex -12.1785 -5.67893 -29
      vertex -7.64697 -3.56584 -29
      vertex -11.6372 -6.71875 -29
    endloop
  endfacet
  facet normal -0 0 -1
    outer loop
      vertex -7.30709 -4.21875 -29
      vertex -11.6372 -6.71875 -29
      vertex -7.64697 -3.56584 -29
    endloop
  endfacet
  facet normal -0 0 -1
    outer loop
      vertex 12.1785 5.67893 -29
      vertex 7.64697 3.56584 -29
      vertex 11.6372 6.71875 -29
    endloop
  endfacet
  facet normal 0 0 -1
    outer loop
      vertex 7.30709 4.21875 -29
      vertex 11.6372 6.71875 -29
      vertex 7.64697 3.56584 -29
    endloop
  endfacet
  facet normal -0 0 -1
    outer loop
      vertex 11.6372 6.71875 -29
      vertex 7.30709 4.21875 -29
      vertex 11.0074 7.70743 -29
    endloop
  endfacet
  facet normal 0 0 -1
    outer loop
      vertex 6.9116 4.83955 -29
      vertex 11.0074 7.70743 -29
      vertex 7.30709 4.21875 -29
    endloop
  endfacet
  facet normal -0 0 -1
    outer loop
      vertex 11.0074 7.70743 -29
      vertex 6.9116 4.83955 -29
      vertex 10.2937 8.63746 -29
    endloop
  endfacet
  facet normal 0 0 -1
    outer loop
      vertex 6.4635 5.42352 -29
      vertex 10.2937 8.63746 -29
      vertex 6.9116 4.83955 -29
    endloop
  endfacet
  facet normal -0 0 -1
    outer loop
      vertex 10.2937 8.63746 -29
      vertex 6.4635 5.42352 -29
      vertex 9.50175 9.50175 -29
    endloop
  endfacet
  facet normal 0 0 -1
    outer loop
      vertex 5.96621 5.96621 -29
      vertex 9.50175 9.50175 -29
      vertex 6.4635 5.42352 -29
    endloop
  endfacet
  facet normal -0 0 -1
    outer loop
      vertex 9.50175 9.50175 -29
      vertex 5.96621 5.96621 -29
      vertex 8.63746 10.2937 -29
    endloop
  endfacet
  facet normal 0 0 -1
    outer loop
      vertex 5.42352 6.4635 -29
      vertex 8.63746 10.2937 -29
      vertex 5.96621 5.96621 -29
    endloop
  endfacet
  facet normal -0 0 -1
    outer loop
      vertex 8.63746 10.2937 -29
      vertex 5.42352 6.4635 -29
      vertex 7.70743 11.0074 -29
    endloop
  endfacet
  facet normal 0 0 -1
    outer loop
      vertex 4.83955 6.9116 -29
      vertex 7.70743 11.0074 -29
      vertex 5.42352 6.4635 -29
    endloop
  endfacet
  facet normal -0 0 -1
    outer loop
      vertex 7.70743 11.0074 -29
      vertex 4.83955 6.9116 -29
      vertex 6.71875 11.6372 -29
    endloop
  endfacet
  facet normal 0 0 -1
    outer loop
      vertex 4.21875 7.30709 -29
      vertex 6.71875 11.6372 -29
      vertex 4.83955 6.9116 -29
    endloop
  endfacet
  facet normal -0 0 -1
    outer loop
      vertex 6.71875 11.6372 -29
      vertex 4.21875 7.30709 -29
      vertex 5.67893 12.1785 -29
    endloop
  endfacet
  facet normal 0 0 -1
    outer loop
      vertex 3.56584 7.64697 -29
      vertex 5.67893 12.1785 -29
      vertex 4.21875 7.30709 -29
    endloop
  endfacet
  facet normal -0 0 -1
    outer loop
      vertex 5.67893 12.1785 -29
      vertex 3.56584 7.64697 -29
      vertex 4.59589 12.6271 -29
    endloop
  endfacet
  facet normal 0 0 -1
    outer loop
      vertex 2.88579 7.92866 -29
      vertex 4.59589 12.6271 -29
      vertex 3.56584 7.64697 -29
    endloop
  endfacet
  facet normal -0 0 -1
    outer loop
      vertex 4.59589 12.6271 -29
      vertex 2.88579 7.92866 -29
      vertex 3.47788 12.9796 -29
    endloop
  endfacet
  facet normal 0 0 -1
    outer loop
      vertex 2.18379 8.15 -29
      vertex 3.47788 12.9796 -29
      vertex 2.88579 7.92866 -29
    endloop
  endfacet
  facet normal -0 0 -1
    outer loop
      vertex 3.47788 12.9796 -29
      vertex 2.18379 8.15 -29
      vertex 2.3334 13.2334 -29
    endloop
  endfacet
  facet normal 0 0 -1
    outer loop
      vertex 1.46516 8.30931 -29
      vertex 2.3334 13.2334 -29
      vertex 2.18379 8.15 -29
    endloop
  endfacet
  facet normal 0 0 -1
    outer loop
      vertex 1.46516 8.30931 -29
      vertex 1.17115 13.3864 -29
      vertex 2.3334 13.2334 -29
    endloop
  endfacet
  facet normal 0 0 -1
    outer loop
      vertex 0.735376 8.40539 -29
      vertex 1.17115 13.3864 -29
      vertex 1.46516 8.30931 -29
    endloop
  endfacet
  facet normal 0 0 -1
    outer loop
      vertex 0 8.4375 -29
      vertex 1.17115 13.3864 -29
      vertex 0.735376 8.40539 -29
    endloop
  endfacet
  facet normal 0 0 -1
    outer loop
      vertex 0 8.4375 -29
      vertex 0 13.4375 -29
      vertex 1.17115 13.3864 -29
    endloop
  endfacet
  facet normal 0 0 -1
    outer loop
      vertex -0.735376 8.40539 -29
      vertex 0 13.4375 -29
      vertex 0 8.4375 -29
    endloop
  endfacet
  facet normal 0 0 -1
    outer loop
      vertex -0.735376 8.40539 -29
      vertex -1.17115 13.3864 -29
      vertex 0 13.4375 -29
    endloop
  endfacet
  facet normal 0 0 -1
    outer loop
      vertex -1.46516 8.30931 -29
      vertex -1.17115 13.3864 -29
      vertex -0.735376 8.40539 -29
    endloop
  endfacet
  facet normal 0 0 -1
    outer loop
      vertex -2.3334 13.2334 -29
      vertex -1.46516 8.30931 -29
      vertex -2.18379 8.15 -29
    endloop
  endfacet
  facet normal 0 0 -1
    outer loop
      vertex -1.46516 8.30931 -29
      vertex -2.3334 13.2334 -29
      vertex -1.17115 13.3864 -29
    endloop
  endfacet
  facet normal 0 0 -1
    outer loop
      vertex -3.47788 12.9796 -29
      vertex -2.18379 8.15 -29
      vertex -2.88579 7.92866 -29
    endloop
  endfacet
  facet normal 0 0 -1
    outer loop
      vertex -2.18379 8.15 -29
      vertex -3.47788 12.9796 -29
      vertex -2.3334 13.2334 -29
    endloop
  endfacet
  facet normal 0 0 -1
    outer loop
      vertex -4.59589 12.6271 -29
      vertex -2.88579 7.92866 -29
      vertex -3.56584 7.64697 -29
    endloop
  endfacet
  facet normal 0 0 -1
    outer loop
      vertex -5.67893 12.1785 -29
      vertex -3.56584 7.64697 -29
      vertex -4.21875 7.30709 -29
    endloop
  endfacet
  facet normal 0 0 -1
    outer loop
      vertex -2.88579 7.92866 -29
      vertex -4.59589 12.6271 -29
      vertex -3.47788 12.9796 -29
    endloop
  endfacet
  facet normal 0 0 -1
    outer loop
      vertex -6.71875 11.6372 -29
      vertex -4.21875 7.30709 -29
      vertex -4.83955 6.9116 -29
    endloop
  endfacet
  facet normal 0 0 -1
    outer loop
      vertex -7.70743 11.0074 -29
      vertex -4.83955 6.9116 -29
      vertex -5.42352 6.4635 -29
    endloop
  endfacet
  facet normal 0 0 -1
    outer loop
      vertex -3.56584 7.64697 -29
      vertex -5.67893 12.1785 -29
      vertex -4.59589 12.6271 -29
    endloop
  endfacet
  facet normal 0 0 -1
    outer loop
      vertex -8.63746 10.2937 -29
      vertex -5.42352 6.4635 -29
      vertex -5.96621 5.96621 -29
    endloop
  endfacet
  facet normal 0 0 -1
    outer loop
      vertex -9.50175 9.50175 -29
      vertex -5.96621 5.96621 -29
      vertex -6.4635 5.42352 -29
    endloop
  endfacet
  facet normal 0 0 -1
    outer loop
      vertex -4.21875 7.30709 -29
      vertex -6.71875 11.6372 -29
      vertex -5.67893 12.1785 -29
    endloop
  endfacet
  facet normal 0 0 -1
    outer loop
      vertex -10.2937 8.63746 -29
      vertex -6.4635 5.42352 -29
      vertex -6.9116 4.83955 -29
    endloop
  endfacet
  facet normal 0 0 -1
    outer loop
      vertex -11.0074 7.70743 -29
      vertex -6.9116 4.83955 -29
      vertex -7.30709 4.21875 -29
    endloop
  endfacet
  facet normal 0 0 -1
    outer loop
      vertex -11.6372 6.71875 -29
      vertex -7.30709 4.21875 -29
      vertex -7.64697 3.56584 -29
    endloop
  endfacet
  facet normal 0 0 -1
    outer loop
      vertex -4.83955 6.9116 -29
      vertex -7.70743 11.0074 -29
      vertex -6.71875 11.6372 -29
    endloop
  endfacet
  facet normal 0 0 -1
    outer loop
      vertex -12.1785 5.67893 -29
      vertex -7.64697 3.56584 -29
      vertex -7.92866 2.88579 -29
    endloop
  endfacet
  facet normal 0 0 -1
    outer loop
      vertex -12.6271 4.59589 -29
      vertex -7.92866 2.88579 -29
      vertex -8.15 2.18379 -29
    endloop
  endfacet
  facet normal 0 0 -1
    outer loop
      vertex -12.9796 3.47788 -29
      vertex -8.15 2.18379 -29
      vertex -8.30931 1.46516 -29
    endloop
  endfacet
  facet normal 0 0 -1
    outer loop
      vertex -13.2334 2.3334 -29
      vertex -8.30931 1.46516 -29
      vertex -8.40539 0.735376 -29
    endloop
  endfacet
  facet normal 0 0 -1
    outer loop
      vertex -5.42352 6.4635 -29
      vertex -8.63746 10.2937 -29
      vertex -7.70743 11.0074 -29
    endloop
  endfacet
  facet normal 0 0 -1
    outer loop
      vertex -13.3864 1.17115 -29
      vertex -8.40539 0.735376 -29
      vertex -8.4375 0 -29
    endloop
  endfacet
  facet normal -0 0 -1
    outer loop
      vertex -7.64697 -3.56584 -29
      vertex -12.1785 -5.67893 -29
      vertex -7.92866 -2.88579 -29
    endloop
  endfacet
  facet normal 0 0 -1
    outer loop
      vertex -12.6271 -4.59589 -29
      vertex -7.92866 -2.88579 -29
      vertex -12.1785 -5.67893 -29
    endloop
  endfacet
  facet normal 0 0 -1
    outer loop
      vertex -5.96621 5.96621 -29
      vertex -9.50175 9.50175 -29
      vertex -8.63746 10.2937 -29
    endloop
  endfacet
  facet normal -0 0 -1
    outer loop
      vertex -7.92866 -2.88579 -29
      vertex -12.6271 -4.59589 -29
      vertex -8.15 -2.18379 -29
    endloop
  endfacet
  facet normal 0 0 -1
    outer loop
      vertex -6.4635 5.42352 -29
      vertex -10.2937 8.63746 -29
      vertex -9.50175 9.50175 -29
    endloop
  endfacet
  facet normal 0 0 -1
    outer loop
      vertex -12.9796 -3.47788 -29
      vertex -8.15 -2.18379 -29
      vertex -12.6271 -4.59589 -29
    endloop
  endfacet
  facet normal 0 0 -1
    outer loop
      vertex -6.9116 4.83955 -29
      vertex -11.0074 7.70743 -29
      vertex -10.2937 8.63746 -29
    endloop
  endfacet
  facet normal -0 0 -1
    outer loop
      vertex -8.15 -2.18379 -29
      vertex -12.9796 -3.47788 -29
      vertex -8.30931 -1.46516 -29
    endloop
  endfacet
  facet normal 0 0 -1
    outer loop
      vertex -7.30709 4.21875 -29
      vertex -11.6372 6.71875 -29
      vertex -11.0074 7.70743 -29
    endloop
  endfacet
  facet normal 0 0 -1
    outer loop
      vertex -13.2334 -2.3334 -29
      vertex -8.30931 -1.46516 -29
      vertex -12.9796 -3.47788 -29
    endloop
  endfacet
  facet normal 0 0 -1
    outer loop
      vertex -7.64697 3.56584 -29
      vertex -12.1785 5.67893 -29
      vertex -11.6372 6.71875 -29
    endloop
  endfacet
  facet normal -0 0 -1
    outer loop
      vertex -8.30931 -1.46516 -29
      vertex -13.2334 -2.3334 -29
      vertex -8.40539 -0.735376 -29
    endloop
  endfacet
  facet normal 0 0 -1
    outer loop
      vertex -7.92866 2.88579 -29
      vertex -12.6271 4.59589 -29
      vertex -12.1785 5.67893 -29
    endloop
  endfacet
  facet normal 0 0 -1
    outer loop
      vertex -13.3864 -1.17115 -29
      vertex -8.40539 -0.735376 -29
      vertex -13.2334 -2.3334 -29
    endloop
  endfacet
  facet normal 0 0 -1
    outer loop
      vertex -8.15 2.18379 -29
      vertex -12.9796 3.47788 -29
      vertex -12.6271 4.59589 -29
    endloop
  endfacet
  facet normal -0 0 -1
    outer loop
      vertex -8.40539 -0.735376 -29
      vertex -13.3864 -1.17115 -29
      vertex -8.4375 0 -29
    endloop
  endfacet
  facet normal 0 0 -1
    outer loop
      vertex -8.30931 1.46516 -29
      vertex -13.2334 2.3334 -29
      vertex -12.9796 3.47788 -29
    endloop
  endfacet
  facet normal 0 0 -1
    outer loop
      vertex -13.4375 0 -29
      vertex -8.4375 0 -29
      vertex -13.3864 -1.17115 -29
    endloop
  endfacet
  facet normal 0 0 -1
    outer loop
      vertex -8.40539 0.735376 -29
      vertex -13.3864 1.17115 -29
      vertex -13.2334 2.3334 -29
    endloop
  endfacet
  facet normal 0 0 -1
    outer loop
      vertex -8.4375 0 -29
      vertex -13.4375 0 -29
      vertex -13.3864 1.17115 -29
    endloop
  endfacet
  facet normal -0.953719 -0.3007 0
    outer loop
      vertex -12.6271 -4.59589 -29
      vertex -12.9796 -3.47788 29
      vertex -12.9796 -3.47788 -29
    endloop
  endfacet
  facet normal -0.953719 -0.3007 0
    outer loop
      vertex -12.9796 -3.47788 29
      vertex -12.6271 -4.59589 -29
      vertex -12.6271 -4.59589 29
    endloop
  endfacet
  facet normal -0.793327 -0.608795 0
    outer loop
      vertex -10.2937 -8.63746 -29
      vertex -11.0074 -7.70743 29
      vertex -11.0074 -7.70743 -29
    endloop
  endfacet
  facet normal -0.793327 -0.608795 0
    outer loop
      vertex -11.0074 -7.70743 29
      vertex -10.2937 -8.63746 -29
      vertex -10.2937 -8.63746 29
    endloop
  endfacet
  facet normal -0.737288 -0.675578 0
    outer loop
      vertex -9.50175 -9.50175 -29
      vertex -10.2937 -8.63746 29
      vertex -10.2937 -8.63746 -29
    endloop
  endfacet
  facet normal -0.737288 -0.675578 0
    outer loop
      vertex -10.2937 -8.63746 29
      vertex -9.50175 -9.50175 -29
      vertex -9.50175 -9.50175 29
    endloop
  endfacet
  facet normal -0.843414 -0.537264 0
    outer loop
      vertex -11.0074 -7.70743 -29
      vertex -11.6372 -6.71875 29
      vertex -11.6372 -6.71875 -29
    endloop
  endfacet
  facet normal -0.843414 -0.537264 0
    outer loop
      vertex -11.6372 -6.71875 29
      vertex -11.0074 -7.70743 -29
      vertex -11.0074 -7.70743 29
    endloop
  endfacet
  facet normal 0.675578 0.737288 -0
    outer loop
      vertex 9.50175 9.50175 -29
      vertex 8.63746 10.2937 29
      vertex 9.50175 9.50175 29
    endloop
  endfacet
  facet normal 0.675578 0.737288 0
    outer loop
      vertex 8.63746 10.2937 29
      vertex 9.50175 9.50175 -29
      vertex 8.63746 10.2937 -29
    endloop
  endfacet
  facet normal 0.382676 0.923883 -0
    outer loop
      vertex 5.67893 12.1785 -29
      vertex 4.59589 12.6271 29
      vertex 5.67893 12.1785 29
    endloop
  endfacet
  facet normal 0.382676 0.923883 0
    outer loop
      vertex 4.59589 12.6271 29
      vertex 5.67893 12.1785 -29
      vertex 4.59589 12.6271 -29
    endloop
  endfacet
  facet normal -0.923883 0.382676 0
    outer loop
      vertex -12.6271 4.59589 -29
      vertex -12.1785 5.67893 29
      vertex -12.1785 5.67893 -29
    endloop
  endfacet
  facet normal -0.923883 0.382676 0
    outer loop
      vertex -12.1785 5.67893 29
      vertex -12.6271 4.59589 -29
      vertex -12.6271 4.59589 29
    endloop
  endfacet
  facet normal 0 0 1
    outer loop
      vertex 8.4375 0 29
      vertex 13.4375 0 29
      vertex 13.3864 1.17115 29
    endloop
  endfacet
  facet normal 0 0 1
    outer loop
      vertex 8.40539 0.735376 29
      vertex 13.3864 1.17115 29
      vertex 13.2334 2.3334 29
    endloop
  endfacet
  facet normal 0 0 1
    outer loop
      vertex 13.4375 0 29
      vertex 8.4375 0 29
      vertex 13.3864 -1.17115 29
    endloop
  endfacet
  facet normal 0 0 1
    outer loop
      vertex 8.30931 1.46516 29
      vertex 13.2334 2.3334 29
      vertex 12.9796 3.47788 29
    endloop
  endfacet
  facet normal -0 0 1
    outer loop
      vertex 8.40539 -0.735376 29
      vertex 13.3864 -1.17115 29
      vertex 8.4375 0 29
    endloop
  endfacet
  facet normal 0 0 1
    outer loop
      vertex 8.15 2.18379 29
      vertex 12.9796 3.47788 29
      vertex 12.6271 4.59589 29
    endloop
  endfacet
  facet normal 0 0 1
    outer loop
      vertex 13.3864 -1.17115 29
      vertex 8.40539 -0.735376 29
      vertex 13.2334 -2.3334 29
    endloop
  endfacet
  facet normal 0 0 1
    outer loop
      vertex 7.92866 2.88579 29
      vertex 12.6271 4.59589 29
      vertex 12.1785 5.67893 29
    endloop
  endfacet
  facet normal -0 0 1
    outer loop
      vertex 8.30931 -1.46516 29
      vertex 13.2334 -2.3334 29
      vertex 8.40539 -0.735376 29
    endloop
  endfacet
  facet normal 0 0 1
    outer loop
      vertex 7.64697 3.56584 29
      vertex 12.1785 5.67893 29
      vertex 11.6372 6.71875 29
    endloop
  endfacet
  facet normal 0 0 1
    outer loop
      vertex 13.2334 -2.3334 29
      vertex 8.30931 -1.46516 29
      vertex 12.9796 -3.47788 29
    endloop
  endfacet
  facet normal 0 0 1
    outer loop
      vertex 7.30709 4.21875 29
      vertex 11.6372 6.71875 29
      vertex 11.0074 7.70743 29
    endloop
  endfacet
  facet normal -0 0 1
    outer loop
      vertex 8.15 -2.18379 29
      vertex 12.9796 -3.47788 29
      vertex 8.30931 -1.46516 29
    endloop
  endfacet
  facet normal 0 0 1
    outer loop
      vertex 6.9116 4.83955 29
      vertex 11.0074 7.70743 29
      vertex 10.2937 8.63746 29
    endloop
  endfacet
  facet normal 0 0 1
    outer loop
      vertex 12.9796 -3.47788 29
      vertex 8.15 -2.18379 29
      vertex 12.6271 -4.59589 29
    endloop
  endfacet
  facet normal 0 0 1
    outer loop
      vertex 6.4635 5.42352 29
      vertex 10.2937 8.63746 29
      vertex 9.50175 9.50175 29
    endloop
  endfacet
  facet normal -0 0 1
    outer loop
      vertex 7.92866 -2.88579 29
      vertex 12.6271 -4.59589 29
      vertex 8.15 -2.18379 29
    endloop
  endfacet
  facet normal 0 0 1
    outer loop
      vertex 5.96621 5.96621 29
      vertex 9.50175 9.50175 29
      vertex 8.63746 10.2937 29
    endloop
  endfacet
  facet normal 0 0 1
    outer loop
      vertex 12.6271 -4.59589 29
      vertex 7.92866 -2.88579 29
      vertex 12.1785 -5.67893 29
    endloop
  endfacet
  facet normal -0 0 1
    outer loop
      vertex 7.64697 -3.56584 29
      vertex 12.1785 -5.67893 29
      vertex 7.92866 -2.88579 29
    endloop
  endfacet
  facet normal 0 0 1
    outer loop
      vertex 13.3864 1.17115 29
      vertex 8.40539 0.735376 29
      vertex 8.4375 0 29
    endloop
  endfacet
  facet normal 0 0 1
    outer loop
      vertex 13.2334 2.3334 29
      vertex 8.30931 1.46516 29
      vertex 8.40539 0.735376 29
    endloop
  endfacet
  facet normal 0 0 1
    outer loop
      vertex 12.9796 3.47788 29
      vertex 8.15 2.18379 29
      vertex 8.30931 1.46516 29
    endloop
  endfacet
  facet normal 0 0 1
    outer loop
      vertex 12.6271 4.59589 29
      vertex 7.92866 2.88579 29
      vertex 8.15 2.18379 29
    endloop
  endfacet
  facet normal 0 0 1
    outer loop
      vertex 5.42352 6.4635 29
      vertex 8.63746 10.2937 29
      vertex 7.70743 11.0074 29
    endloop
  endfacet
  facet normal 0 0 1
    outer loop
      vertex 12.1785 5.67893 29
      vertex 7.64697 3.56584 29
      vertex 7.92866 2.88579 29
    endloop
  endfacet
  facet normal 0 0 1
    outer loop
      vertex 11.6372 6.71875 29
      vertex 7.30709 4.21875 29
      vertex 7.64697 3.56584 29
    endloop
  endfacet
  facet normal 0 0 1
    outer loop
      vertex 11.0074 7.70743 29
      vertex 6.9116 4.83955 29
      vertex 7.30709 4.21875 29
    endloop
  endfacet
  facet normal 0 0 1
    outer loop
      vertex 4.83955 6.9116 29
      vertex 7.70743 11.0074 29
      vertex 6.71875 11.6372 29
    endloop
  endfacet
  facet normal 0 0 1
    outer loop
      vertex 10.2937 8.63746 29
      vertex 6.4635 5.42352 29
      vertex 6.9116 4.83955 29
    endloop
  endfacet
  facet normal 0 0 1
    outer loop
      vertex 9.50175 9.50175 29
      vertex 5.96621 5.96621 29
      vertex 6.4635 5.42352 29
    endloop
  endfacet
  facet normal 0 0 1
    outer loop
      vertex 4.21875 7.30709 29
      vertex 6.71875 11.6372 29
      vertex 5.67893 12.1785 29
    endloop
  endfacet
  facet normal 0 0 1
    outer loop
      vertex 8.63746 10.2937 29
      vertex 5.42352 6.4635 29
      vertex 5.96621 5.96621 29
    endloop
  endfacet
  facet normal 0 0 1
    outer loop
      vertex 7.70743 11.0074 29
      vertex 4.83955 6.9116 29
      vertex 5.42352 6.4635 29
    endloop
  endfacet
  facet normal 0 0 1
    outer loop
      vertex 3.56584 7.64697 29
      vertex 5.67893 12.1785 29
      vertex 4.59589 12.6271 29
    endloop
  endfacet
  facet normal 0 0 1
    outer loop
      vertex 6.71875 11.6372 29
      vertex 4.21875 7.30709 29
      vertex 4.83955 6.9116 29
    endloop
  endfacet
  facet normal 0 0 1
    outer loop
      vertex 5.67893 12.1785 29
      vertex 3.56584 7.64697 29
      vertex 4.21875 7.30709 29
    endloop
  endfacet
  facet normal 0 0 1
    outer loop
      vertex 2.88579 7.92866 29
      vertex 4.59589 12.6271 29
      vertex 3.47788 12.9796 29
    endloop
  endfacet
  facet normal 0 0 1
    outer loop
      vertex 4.59589 12.6271 29
      vertex 2.88579 7.92866 29
      vertex 3.56584 7.64697 29
    endloop
  endfacet
  facet normal 0 0 1
    outer loop
      vertex 2.18379 8.15 29
      vertex 3.47788 12.9796 29
      vertex 2.3334 13.2334 29
    endloop
  endfacet
  facet normal 0 0 1
    outer loop
      vertex 3.47788 12.9796 29
      vertex 2.18379 8.15 29
      vertex 2.88579 7.92866 29
    endloop
  endfacet
  facet normal 0 0 1
    outer loop
      vertex 2.3334 13.2334 29
      vertex 1.46516 8.30931 29
      vertex 2.18379 8.15 29
    endloop
  endfacet
  facet normal 0 0 1
    outer loop
      vertex 1.17115 13.3864 29
      vertex 1.46516 8.30931 29
      vertex 2.3334 13.2334 29
    endloop
  endfacet
  facet normal 0 0 1
    outer loop
      vertex 1.17115 13.3864 29
      vertex 0.735376 8.40539 29
      vertex 1.46516 8.30931 29
    endloop
  endfacet
  facet normal 0 0 1
    outer loop
      vertex 0 13.4375 29
      vertex 0.735376 8.40539 29
      vertex 1.17115 13.3864 29
    endloop
  endfacet
  facet normal 0 0 1
    outer loop
      vertex 0 13.4375 29
      vertex 0 8.4375 29
      vertex 0.735376 8.40539 29
    endloop
  endfacet
  facet normal 0 0 1
    outer loop
      vertex 0 13.4375 29
      vertex -0.735376 8.40539 29
      vertex 0 8.4375 29
    endloop
  endfacet
  facet normal -0 0 1
    outer loop
      vertex -1.17115 13.3864 29
      vertex -0.735376 8.40539 29
      vertex 0 13.4375 29
    endloop
  endfacet
  facet normal 0 0 1
    outer loop
      vertex -1.17115 13.3864 29
      vertex -1.46516 8.30931 29
      vertex -0.735376 8.40539 29
    endloop
  endfacet
  facet normal -0 0 1
    outer loop
      vertex -2.3334 13.2334 29
      vertex -1.46516 8.30931 29
      vertex -1.17115 13.3864 29
    endloop
  endfacet
  facet normal 0 0 1
    outer loop
      vertex -1.46516 8.30931 29
      vertex -2.3334 13.2334 29
      vertex -2.18379 8.15 29
    endloop
  endfacet
  facet normal -0 0 1
    outer loop
      vertex -3.47788 12.9796 29
      vertex -2.18379 8.15 29
      vertex -2.3334 13.2334 29
    endloop
  endfacet
  facet normal 0 0 1
    outer loop
      vertex -2.18379 8.15 29
      vertex -3.47788 12.9796 29
      vertex -2.88579 7.92866 29
    endloop
  endfacet
  facet normal -0 0 1
    outer loop
      vertex -4.59589 12.6271 29
      vertex -2.88579 7.92866 29
      vertex -3.47788 12.9796 29
    endloop
  endfacet
  facet normal 0 0 1
    outer loop
      vertex -2.88579 7.92866 29
      vertex -4.59589 12.6271 29
      vertex -3.56584 7.64697 29
    endloop
  endfacet
  facet normal -0 0 1
    outer loop
      vertex -5.67893 12.1785 29
      vertex -3.56584 7.64697 29
      vertex -4.59589 12.6271 29
    endloop
  endfacet
  facet normal 0 0 1
    outer loop
      vertex -3.56584 7.64697 29
      vertex -5.67893 12.1785 29
      vertex -4.21875 7.30709 29
    endloop
  endfacet
  facet normal -0 0 1
    outer loop
      vertex -6.71875 11.6372 29
      vertex -4.21875 7.30709 29
      vertex -5.67893 12.1785 29
    endloop
  endfacet
  facet normal 0 0 1
    outer loop
      vertex -4.21875 7.30709 29
      vertex -6.71875 11.6372 29
      vertex -4.83955 6.9116 29
    endloop
  endfacet
  facet normal -0 0 1
    outer loop
      vertex -7.70743 11.0074 29
      vertex -4.83955 6.9116 29
      vertex -6.71875 11.6372 29
    endloop
  endfacet
  facet normal 0 0 1
    outer loop
      vertex -4.83955 6.9116 29
      vertex -7.70743 11.0074 29
      vertex -5.42352 6.4635 29
    endloop
  endfacet
  facet normal -0 0 1
    outer loop
      vertex -8.63746 10.2937 29
      vertex -5.42352 6.4635 29
      vertex -7.70743 11.0074 29
    endloop
  endfacet
  facet normal 0 0 1
    outer loop
      vertex -5.42352 6.4635 29
      vertex -8.63746 10.2937 29
      vertex -5.96621 5.96621 29
    endloop
  endfacet
  facet normal -0 0 1
    outer loop
      vertex -9.50175 9.50175 29
      vertex -5.96621 5.96621 29
      vertex -8.63746 10.2937 29
    endloop
  endfacet
  facet normal 0 0 1
    outer loop
      vertex -5.96621 5.96621 29
      vertex -9.50175 9.50175 29
      vertex -6.4635 5.42352 29
    endloop
  endfacet
  facet normal -0 0 1
    outer loop
      vertex -10.2937 8.63746 29
      vertex -6.4635 5.42352 29
      vertex -9.50175 9.50175 29
    endloop
  endfacet
  facet normal 0 0 1
    outer loop
      vertex -6.4635 5.42352 29
      vertex -10.2937 8.63746 29
      vertex -6.9116 4.83955 29
    endloop
  endfacet
  facet normal -0 0 1
    outer loop
      vertex -11.0074 7.70743 29
      vertex -6.9116 4.83955 29
      vertex -10.2937 8.63746 29
    endloop
  endfacet
  facet normal 0 0 1
    outer loop
      vertex -6.9116 4.83955 29
      vertex -11.0074 7.70743 29
      vertex -7.30709 4.21875 29
    endloop
  endfacet
  facet normal -0 0 1
    outer loop
      vertex -11.6372 6.71875 29
      vertex -7.30709 4.21875 29
      vertex -11.0074 7.70743 29
    endloop
  endfacet
  facet normal -0 0 1
    outer loop
      vertex -12.1785 5.67893 29
      vertex -7.64697 3.56584 29
      vertex -11.6372 6.71875 29
    endloop
  endfacet
  facet normal 0 0 1
    outer loop
      vertex -7.30709 4.21875 29
      vertex -11.6372 6.71875 29
      vertex -7.64697 3.56584 29
    endloop
  endfacet
  facet normal 0 0 1
    outer loop
      vertex 12.1785 -5.67893 29
      vertex 7.64697 -3.56584 29
      vertex 11.6372 -6.71875 29
    endloop
  endfacet
  facet normal -0 0 1
    outer loop
      vertex 7.30709 -4.21875 29
      vertex 11.6372 -6.71875 29
      vertex 7.64697 -3.56584 29
    endloop
  endfacet
  facet normal 0 0 1
    outer loop
      vertex 11.6372 -6.71875 29
      vertex 7.30709 -4.21875 29
      vertex 11.0074 -7.70743 29
    endloop
  endfacet
  facet normal -0 0 1
    outer loop
      vertex 6.9116 -4.83955 29
      vertex 11.0074 -7.70743 29
      vertex 7.30709 -4.21875 29
    endloop
  endfacet
  facet normal 0 0 1
    outer loop
      vertex 11.0074 -7.70743 29
      vertex 6.9116 -4.83955 29
      vertex 10.2937 -8.63746 29
    endloop
  endfacet
  facet normal -0 0 1
    outer loop
      vertex 6.4635 -5.42352 29
      vertex 10.2937 -8.63746 29
      vertex 6.9116 -4.83955 29
    endloop
  endfacet
  facet normal 0 0 1
    outer loop
      vertex 10.2937 -8.63746 29
      vertex 6.4635 -5.42352 29
      vertex 9.50175 -9.50175 29
    endloop
  endfacet
  facet normal -0 0 1
    outer loop
      vertex 5.96621 -5.96621 29
      vertex 9.50175 -9.50175 29
      vertex 6.4635 -5.42352 29
    endloop
  endfacet
  facet normal 0 0 1
    outer loop
      vertex 9.50175 -9.50175 29
      vertex 5.96621 -5.96621 29
      vertex 8.63746 -10.2937 29
    endloop
  endfacet
  facet normal -0 0 1
    outer loop
      vertex 5.42352 -6.4635 29
      vertex 8.63746 -10.2937 29
      vertex 5.96621 -5.96621 29
    endloop
  endfacet
  facet normal 0 0 1
    outer loop
      vertex 8.63746 -10.2937 29
      vertex 5.42352 -6.4635 29
      vertex 7.70743 -11.0074 29
    endloop
  endfacet
  facet normal -0 0 1
    outer loop
      vertex 4.83955 -6.9116 29
      vertex 7.70743 -11.0074 29
      vertex 5.42352 -6.4635 29
    endloop
  endfacet
  facet normal 0 0 1
    outer loop
      vertex 7.70743 -11.0074 29
      vertex 4.83955 -6.9116 29
      vertex 6.71875 -11.6372 29
    endloop
  endfacet
  facet normal -0 0 1
    outer loop
      vertex 4.21875 -7.30709 29
      vertex 6.71875 -11.6372 29
      vertex 4.83955 -6.9116 29
    endloop
  endfacet
  facet normal 0 0 1
    outer loop
      vertex 6.71875 -11.6372 29
      vertex 4.21875 -7.30709 29
      vertex 5.67893 -12.1785 29
    endloop
  endfacet
  facet normal -0 0 1
    outer loop
      vertex 3.56584 -7.64697 29
      vertex 5.67893 -12.1785 29
      vertex 4.21875 -7.30709 29
    endloop
  endfacet
  facet normal 0 0 1
    outer loop
      vertex 5.67893 -12.1785 29
      vertex 3.56584 -7.64697 29
      vertex 4.59589 -12.6271 29
    endloop
  endfacet
  facet normal -0 0 1
    outer loop
      vertex 2.88579 -7.92866 29
      vertex 4.59589 -12.6271 29
      vertex 3.56584 -7.64697 29
    endloop
  endfacet
  facet normal 0 0 1
    outer loop
      vertex 4.59589 -12.6271 29
      vertex 2.88579 -7.92866 29
      vertex 3.47788 -12.9796 29
    endloop
  endfacet
  facet normal -0 0 1
    outer loop
      vertex 2.18379 -8.15 29
      vertex 3.47788 -12.9796 29
      vertex 2.88579 -7.92866 29
    endloop
  endfacet
  facet normal 0 0 1
    outer loop
      vertex 3.47788 -12.9796 29
      vertex 2.18379 -8.15 29
      vertex 2.3334 -13.2334 29
    endloop
  endfacet
  facet normal -0 0 1
    outer loop
      vertex 1.46516 -8.30931 29
      vertex 2.3334 -13.2334 29
      vertex 2.18379 -8.15 29
    endloop
  endfacet
  facet normal 0 0 1
    outer loop
      vertex 1.46516 -8.30931 29
      vertex 1.17115 -13.3864 29
      vertex 2.3334 -13.2334 29
    endloop
  endfacet
  facet normal -0 0 1
    outer loop
      vertex 0.735376 -8.40539 29
      vertex 1.17115 -13.3864 29
      vertex 1.46516 -8.30931 29
    endloop
  endfacet
  facet normal -0 0 1
    outer loop
      vertex 0 -8.4375 29
      vertex 1.17115 -13.3864 29
      vertex 0.735376 -8.40539 29
    endloop
  endfacet
  facet normal 0 0 1
    outer loop
      vertex 0 -8.4375 29
      vertex 0 -13.4375 29
      vertex 1.17115 -13.3864 29
    endloop
  endfacet
  facet normal 0 0 1
    outer loop
      vertex -0.735376 -8.40539 29
      vertex 0 -13.4375 29
      vertex 0 -8.4375 29
    endloop
  endfacet
  facet normal 0 0 1
    outer loop
      vertex -0.735376 -8.40539 29
      vertex -1.17115 -13.3864 29
      vertex 0 -13.4375 29
    endloop
  endfacet
  facet normal 0 0 1
    outer loop
      vertex -1.46516 -8.30931 29
      vertex -1.17115 -13.3864 29
      vertex -0.735376 -8.40539 29
    endloop
  endfacet
  facet normal 0 0 1
    outer loop
      vertex -2.3334 -13.2334 29
      vertex -1.46516 -8.30931 29
      vertex -2.18379 -8.15 29
    endloop
  endfacet
  facet normal 0 0 1
    outer loop
      vertex -1.46516 -8.30931 29
      vertex -2.3334 -13.2334 29
      vertex -1.17115 -13.3864 29
    endloop
  endfacet
  facet normal 0 0 1
    outer loop
      vertex -3.47788 -12.9796 29
      vertex -2.18379 -8.15 29
      vertex -2.88579 -7.92866 29
    endloop
  endfacet
  facet normal 0 0 1
    outer loop
      vertex -2.18379 -8.15 29
      vertex -3.47788 -12.9796 29
      vertex -2.3334 -13.2334 29
    endloop
  endfacet
  facet normal 0 0 1
    outer loop
      vertex -4.59589 -12.6271 29
      vertex -2.88579 -7.92866 29
      vertex -3.56584 -7.64697 29
    endloop
  endfacet
  facet normal 0 0 1
    outer loop
      vertex -5.67893 -12.1785 29
      vertex -3.56584 -7.64697 29
      vertex -4.21875 -7.30709 29
    endloop
  endfacet
  facet normal 0 0 1
    outer loop
      vertex -2.88579 -7.92866 29
      vertex -4.59589 -12.6271 29
      vertex -3.47788 -12.9796 29
    endloop
  endfacet
  facet normal 0 0 1
    outer loop
      vertex -6.71875 -11.6372 29
      vertex -4.21875 -7.30709 29
      vertex -4.83955 -6.9116 29
    endloop
  endfacet
  facet normal 0 0 1
    outer loop
      vertex -7.70743 -11.0074 29
      vertex -4.83955 -6.9116 29
      vertex -5.42352 -6.4635 29
    endloop
  endfacet
  facet normal 0 0 1
    outer loop
      vertex -3.56584 -7.64697 29
      vertex -5.67893 -12.1785 29
      vertex -4.59589 -12.6271 29
    endloop
  endfacet
  facet normal 0 0 1
    outer loop
      vertex -8.63746 -10.2937 29
      vertex -5.42352 -6.4635 29
      vertex -5.96621 -5.96621 29
    endloop
  endfacet
  facet normal 0 0 1
    outer loop
      vertex -9.50175 -9.50175 29
      vertex -5.96621 -5.96621 29
      vertex -6.4635 -5.42352 29
    endloop
  endfacet
  facet normal 0 0 1
    outer loop
      vertex -4.21875 -7.30709 29
      vertex -6.71875 -11.6372 29
      vertex -5.67893 -12.1785 29
    endloop
  endfacet
  facet normal 0 0 1
    outer loop
      vertex -10.2937 -8.63746 29
      vertex -6.4635 -5.42352 29
      vertex -6.9116 -4.83955 29
    endloop
  endfacet
  facet normal 0 0 1
    outer loop
      vertex -11.0074 -7.70743 29
      vertex -6.9116 -4.83955 29
      vertex -7.30709 -4.21875 29
    endloop
  endfacet
  facet normal 0 0 1
    outer loop
      vertex -11.6372 -6.71875 29
      vertex -7.30709 -4.21875 29
      vertex -7.64697 -3.56584 29
    endloop
  endfacet
  facet normal 0 0 1
    outer loop
      vertex -4.83955 -6.9116 29
      vertex -7.70743 -11.0074 29
      vertex -6.71875 -11.6372 29
    endloop
  endfacet
  facet normal 0 0 1
    outer loop
      vertex -12.1785 -5.67893 29
      vertex -7.64697 -3.56584 29
      vertex -7.92866 -2.88579 29
    endloop
  endfacet
  facet normal 0 0 1
    outer loop
      vertex -12.6271 -4.59589 29
      vertex -7.92866 -2.88579 29
      vertex -8.15 -2.18379 29
    endloop
  endfacet
  facet normal 0 0 1
    outer loop
      vertex -12.9796 -3.47788 29
      vertex -8.15 -2.18379 29
      vertex -8.30931 -1.46516 29
    endloop
  endfacet
  facet normal 0 0 1
    outer loop
      vertex -13.2334 -2.3334 29
      vertex -8.30931 -1.46516 29
      vertex -8.40539 -0.735376 29
    endloop
  endfacet
  facet normal 0 0 1
    outer loop
      vertex -5.42352 -6.4635 29
      vertex -8.63746 -10.2937 29
      vertex -7.70743 -11.0074 29
    endloop
  endfacet
  facet normal 0 0 1
    outer loop
      vertex -13.3864 -1.17115 29
      vertex -8.40539 -0.735376 29
      vertex -8.4375 0 29
    endloop
  endfacet
  facet normal 0 0 1
    outer loop
      vertex -7.64697 3.56584 29
      vertex -12.1785 5.67893 29
      vertex -7.92866 2.88579 29
    endloop
  endfacet
  facet normal -0 0 1
    outer loop
      vertex -12.6271 4.59589 29
      vertex -7.92866 2.88579 29
      vertex -12.1785 5.67893 29
    endloop
  endfacet
  facet normal 0 0 1
    outer loop
      vertex -5.96621 -5.96621 29
      vertex -9.50175 -9.50175 29
      vertex -8.63746 -10.2937 29
    endloop
  endfacet
  facet normal 0 0 1
    outer loop
      vertex -7.92866 2.88579 29
      vertex -12.6271 4.59589 29
      vertex -8.15 2.18379 29
    endloop
  endfacet
  facet normal 0 0 1
    outer loop
      vertex -6.4635 -5.42352 29
      vertex -10.2937 -8.63746 29
      vertex -9.50175 -9.50175 29
    endloop
  endfacet
  facet normal -0 0 1
    outer loop
      vertex -12.9796 3.47788 29
      vertex -8.15 2.18379 29
      vertex -12.6271 4.59589 29
    endloop
  endfacet
  facet normal 0 0 1
    outer loop
      vertex -6.9116 -4.83955 29
      vertex -11.0074 -7.70743 29
      vertex -10.2937 -8.63746 29
    endloop
  endfacet
  facet normal 0 0 1
    outer loop
      vertex -8.15 2.18379 29
      vertex -12.9796 3.47788 29
      vertex -8.30931 1.46516 29
    endloop
  endfacet
  facet normal 0 0 1
    outer loop
      vertex -7.30709 -4.21875 29
      vertex -11.6372 -6.71875 29
      vertex -11.0074 -7.70743 29
    endloop
  endfacet
  facet normal -0 0 1
    outer loop
      vertex -13.2334 2.3334 29
      vertex -8.30931 1.46516 29
      vertex -12.9796 3.47788 29
    endloop
  endfacet
  facet normal 0 0 1
    outer loop
      vertex -7.64697 -3.56584 29
      vertex -12.1785 -5.67893 29
      vertex -11.6372 -6.71875 29
    endloop
  endfacet
  facet normal 0 0 1
    outer loop
      vertex -8.30931 1.46516 29
      vertex -13.2334 2.3334 29
      vertex -8.40539 0.735376 29
    endloop
  endfacet
  facet normal 0 0 1
    outer loop
      vertex -7.92866 -2.88579 29
      vertex -12.6271 -4.59589 29
      vertex -12.1785 -5.67893 29
    endloop
  endfacet
  facet normal -0 0 1
    outer loop
      vertex -13.3864 1.17115 29
      vertex -8.40539 0.735376 29
      vertex -13.2334 2.3334 29
    endloop
  endfacet
  facet normal 0 0 1
    outer loop
      vertex -8.15 -2.18379 29
      vertex -12.9796 -3.47788 29
      vertex -12.6271 -4.59589 29
    endloop
  endfacet
  facet normal 0 0 1
    outer loop
      vertex -8.40539 0.735376 29
      vertex -13.3864 1.17115 29
      vertex -8.4375 0 29
    endloop
  endfacet
  facet normal 0 0 1
    outer loop
      vertex -8.30931 -1.46516 29
      vertex -13.2334 -2.3334 29
      vertex -12.9796 -3.47788 29
    endloop
  endfacet
  facet normal 0 0 1
    outer loop
      vertex -13.4375 0 29
      vertex -8.4375 0 29
      vertex -13.3864 1.17115 29
    endloop
  endfacet
  facet normal 0 0 1
    outer loop
      vertex -8.40539 -0.735376 29
      vertex -13.3864 -1.17115 29
      vertex -13.2334 -2.3334 29
    endloop
  endfacet
  facet normal 0 0 1
    outer loop
      vertex -8.4375 0 29
      vertex -13.4375 0 29
      vertex -13.3864 -1.17115 29
    endloop
  endfacet
  facet normal -0.382676 0.923883 0
    outer loop
      vertex -4.59589 12.6271 -29
      vertex -5.67893 12.1785 29
      vertex -4.59589 12.6271 29
    endloop
  endfacet
  facet normal -0.382676 0.923883 0
    outer loop
      vertex -5.67893 12.1785 29
      vertex -4.59589 12.6271 -29
      vertex -5.67893 12.1785 -29
    endloop
  endfacet
  facet normal -0.3007 0.953719 0
    outer loop
      vertex -3.47788 12.9796 -29
      vertex -4.59589 12.6271 29
      vertex -3.47788 12.9796 29
    endloop
  endfacet
  facet normal -0.3007 0.953719 0
    outer loop
      vertex -4.59589 12.6271 29
      vertex -3.47788 12.9796 -29
      vertex -4.59589 12.6271 -29
    endloop
  endfacet
  facet normal 0.991446 -0.130515 0
    outer loop
      vertex 13.2334 -2.3334 29
      vertex 13.3864 -1.17115 -29
      vertex 13.3864 -1.17115 29
    endloop
  endfacet
  facet normal 0.991446 -0.130515 0
    outer loop
      vertex 13.3864 -1.17115 -29
      vertex 13.2334 -2.3334 29
      vertex 13.2334 -2.3334 -29
    endloop
  endfacet
  facet normal 0.999049 -0.0435909 0
    outer loop
      vertex 13.3864 -1.17115 29
      vertex 13.4375 0 -29
      vertex 13.4375 0 29
    endloop
  endfacet
  facet normal 0.999049 -0.0435909 0
    outer loop
      vertex 13.4375 0 -29
      vertex 13.3864 -1.17115 29
      vertex 13.3864 -1.17115 -29
    endloop
  endfacet
  facet normal 0.976283 -0.216501 0
    outer loop
      vertex 12.9796 -3.47788 29
      vertex 13.2334 -2.3334 -29
      vertex 13.2334 -2.3334 29
    endloop
  endfacet
  facet normal 0.976283 -0.216501 0
    outer loop
      vertex 13.2334 -2.3334 -29
      vertex 12.9796 -3.47788 29
      vertex 12.9796 -3.47788 -29
    endloop
  endfacet
  facet normal 0.887009 -0.461751 0
    outer loop
      vertex 11.6372 -6.71875 29
      vertex 12.1785 -5.67893 -29
      vertex 12.1785 -5.67893 29
    endloop
  endfacet
  facet normal 0.887009 -0.461751 0
    outer loop
      vertex 12.1785 -5.67893 -29
      vertex 11.6372 -6.71875 29
      vertex 11.6372 -6.71875 -29
    endloop
  endfacet
  facet normal 0.737288 -0.675578 0
    outer loop
      vertex 9.50175 -9.50175 29
      vertex 10.2937 -8.63746 -29
      vertex 10.2937 -8.63746 29
    endloop
  endfacet
  facet normal 0.737288 -0.675578 0
    outer loop
      vertex 10.2937 -8.63746 -29
      vertex 9.50175 -9.50175 29
      vertex 9.50175 -9.50175 -29
    endloop
  endfacet
  facet normal 0.793327 -0.608795 0
    outer loop
      vertex 10.2937 -8.63746 29
      vertex 11.0074 -7.70743 -29
      vertex 11.0074 -7.70743 29
    endloop
  endfacet
  facet normal 0.793327 -0.608795 0
    outer loop
      vertex 11.0074 -7.70743 -29
      vertex 10.2937 -8.63746 29
      vertex 10.2937 -8.63746 -29
    endloop
  endfacet
  facet normal 0.3007 -0.953719 0
    outer loop
      vertex 3.47788 -12.9796 -29
      vertex 4.59589 -12.6271 29
      vertex 3.47788 -12.9796 29
    endloop
  endfacet
  facet normal 0.3007 -0.953719 0
    outer loop
      vertex 4.59589 -12.6271 29
      vertex 3.47788 -12.9796 -29
      vertex 4.59589 -12.6271 -29
    endloop
  endfacet
  facet normal 0.537264 -0.843414 0
    outer loop
      vertex 6.71875 -11.6372 -29
      vertex 7.70743 -11.0074 29
      vertex 6.71875 -11.6372 29
    endloop
  endfacet
  facet normal 0.537264 -0.843414 0
    outer loop
      vertex 7.70743 -11.0074 29
      vertex 6.71875 -11.6372 -29
      vertex 7.70743 -11.0074 -29
    endloop
  endfacet
  facet normal -0.382676 -0.923883 0
    outer loop
      vertex -5.67893 -12.1785 -29
      vertex -4.59589 -12.6271 29
      vertex -5.67893 -12.1785 29
    endloop
  endfacet
  facet normal -0.382676 -0.923883 -0
    outer loop
      vertex -4.59589 -12.6271 29
      vertex -5.67893 -12.1785 -29
      vertex -4.59589 -12.6271 -29
    endloop
  endfacet
  facet normal -0.3007 -0.953719 0
    outer loop
      vertex -4.59589 -12.6271 -29
      vertex -3.47788 -12.9796 29
      vertex -4.59589 -12.6271 29
    endloop
  endfacet
  facet normal -0.3007 -0.953719 -0
    outer loop
      vertex -3.47788 -12.9796 29
      vertex -4.59589 -12.6271 -29
      vertex -3.47788 -12.9796 -29
    endloop
  endfacet
  facet normal -0.608795 -0.793327 0
    outer loop
      vertex -8.63746 -10.2937 -29
      vertex -7.70743 -11.0074 29
      vertex -8.63746 -10.2937 29
    endloop
  endfacet
  facet normal -0.608795 -0.793327 -0
    outer loop
      vertex -7.70743 -11.0074 29
      vertex -8.63746 -10.2937 -29
      vertex -7.70743 -11.0074 -29
    endloop
  endfacet
  facet normal -0.991446 -0.130515 0
    outer loop
      vertex -13.2334 -2.3334 -29
      vertex -13.3864 -1.17115 29
      vertex -13.3864 -1.17115 -29
    endloop
  endfacet
  facet normal -0.991446 -0.130515 0
    outer loop
      vertex -13.3864 -1.17115 29
      vertex -13.2334 -2.3334 -29
      vertex -13.2334 -2.3334 29
    endloop
  endfacet
  facet normal 0.953719 -0.3007 0
    outer loop
      vertex 12.6271 -4.59589 29
      vertex 12.9796 -3.47788 -29
      vertex 12.9796 -3.47788 29
    endloop
  endfacet
  facet normal 0.953719 -0.3007 0
    outer loop
      vertex 12.9796 -3.47788 -29
      vertex 12.6271 -4.59589 29
      vertex 12.6271 -4.59589 -29
    endloop
  endfacet
  facet normal 0.923883 -0.382676 0
    outer loop
      vertex 12.1785 -5.67893 29
      vertex 12.6271 -4.59589 -29
      vertex 12.6271 -4.59589 29
    endloop
  endfacet
  facet normal 0.923883 -0.382676 0
    outer loop
      vertex 12.6271 -4.59589 -29
      vertex 12.1785 -5.67893 29
      vertex 12.1785 -5.67893 -29
    endloop
  endfacet
  facet normal -0.923883 -0.382676 0
    outer loop
      vertex -12.1785 -5.67893 -29
      vertex -12.6271 -4.59589 29
      vertex -12.6271 -4.59589 -29
    endloop
  endfacet
  facet normal -0.923883 -0.382676 0
    outer loop
      vertex -12.6271 -4.59589 29
      vertex -12.1785 -5.67893 -29
      vertex -12.1785 -5.67893 29
    endloop
  endfacet
  facet normal -0.675595 -0.737273 0
    outer loop
      vertex 5.42352 6.4635 -29
      vertex 5.96621 5.96621 29
      vertex 5.42352 6.4635 29
    endloop
  endfacet
  facet normal -0.675595 -0.737273 -0
    outer loop
      vertex 5.96621 5.96621 29
      vertex 5.42352 6.4635 -29
      vertex 5.96621 5.96621 -29
    endloop
  endfacet
  facet normal 0.382688 -0.923878 0
    outer loop
      vertex -3.56584 7.64697 -29
      vertex -2.88579 7.92866 29
      vertex -3.56584 7.64697 29
    endloop
  endfacet
  facet normal 0.382688 -0.923878 0
    outer loop
      vertex -2.88579 7.92866 29
      vertex -3.56584 7.64697 -29
      vertex -2.88579 7.92866 -29
    endloop
  endfacet
  facet normal 0.887013 -0.461745 0
    outer loop
      vertex -7.64697 3.56584 29
      vertex -7.30709 4.21875 -29
      vertex -7.30709 4.21875 29
    endloop
  endfacet
  facet normal 0.887013 -0.461745 0
    outer loop
      vertex -7.30709 4.21875 -29
      vertex -7.64697 3.56584 29
      vertex -7.64697 3.56584 -29
    endloop
  endfacet
  facet normal -0.999048 0.0436232 0
    outer loop
      vertex 8.40539 -0.735376 -29
      vertex 8.4375 0 29
      vertex 8.4375 0 -29
    endloop
  endfacet
  facet normal -0.999048 0.0436232 0
    outer loop
      vertex 8.4375 0 29
      vertex 8.40539 -0.735376 -29
      vertex 8.40539 -0.735376 29
    endloop
  endfacet
  facet normal -0.923878 -0.382688 0
    outer loop
      vertex 7.92866 2.88579 -29
      vertex 7.64697 3.56584 29
      vertex 7.64697 3.56584 -29
    endloop
  endfacet
  facet normal -0.923878 -0.382688 0
    outer loop
      vertex 7.64697 3.56584 29
      vertex 7.92866 2.88579 -29
      vertex 7.92866 2.88579 29
    endloop
  endfacet
  facet normal -0.887013 -0.461745 0
    outer loop
      vertex 7.64697 3.56584 -29
      vertex 7.30709 4.21875 29
      vertex 7.30709 4.21875 -29
    endloop
  endfacet
  facet normal -0.887013 -0.461745 0
    outer loop
      vertex 7.30709 4.21875 29
      vertex 7.64697 3.56584 -29
      vertex 7.64697 3.56584 29
    endloop
  endfacet
  facet normal -0.461745 -0.887013 0
    outer loop
      vertex 3.56584 7.64697 -29
      vertex 4.21875 7.30709 29
      vertex 3.56584 7.64697 29
    endloop
  endfacet
  facet normal -0.461745 -0.887013 -0
    outer loop
      vertex 4.21875 7.30709 29
      vertex 3.56584 7.64697 -29
      vertex 4.21875 7.30709 -29
    endloop
  endfacet
  facet normal 0.737273 -0.675595 0
    outer loop
      vertex -6.4635 5.42352 29
      vertex -5.96621 5.96621 -29
      vertex -5.96621 5.96621 29
    endloop
  endfacet
  facet normal 0.737273 -0.675595 0
    outer loop
      vertex -5.96621 5.96621 -29
      vertex -6.4635 5.42352 29
      vertex -6.4635 5.42352 -29
    endloop
  endfacet
  facet normal 0.216431 -0.976298 0
    outer loop
      vertex -2.18379 8.15 -29
      vertex -1.46516 8.30931 29
      vertex -2.18379 8.15 29
    endloop
  endfacet
  facet normal 0.216431 -0.976298 0
    outer loop
      vertex -1.46516 8.30931 29
      vertex -2.18379 8.15 -29
      vertex -1.46516 8.30931 -29
    endloop
  endfacet
  facet normal -0.923878 0.382688 0
    outer loop
      vertex 7.64697 -3.56584 -29
      vertex 7.92866 -2.88579 29
      vertex 7.92866 -2.88579 -29
    endloop
  endfacet
  facet normal -0.923878 0.382688 0
    outer loop
      vertex 7.92866 -2.88579 29
      vertex 7.64697 -3.56584 -29
      vertex 7.64697 -3.56584 29
    endloop
  endfacet
  facet normal 0.675595 0.737273 -0
    outer loop
      vertex -5.42352 -6.4635 -29
      vertex -5.96621 -5.96621 29
      vertex -5.42352 -6.4635 29
    endloop
  endfacet
  facet normal 0.675595 0.737273 0
    outer loop
      vertex -5.96621 -5.96621 29
      vertex -5.42352 -6.4635 -29
      vertex -5.96621 -5.96621 -29
    endloop
  endfacet
  facet normal -0.976298 -0.216431 0
    outer loop
      vertex 8.30931 1.46516 -29
      vertex 8.15 2.18379 29
      vertex 8.15 2.18379 -29
    endloop
  endfacet
  facet normal -0.976298 -0.216431 0
    outer loop
      vertex 8.15 2.18379 29
      vertex 8.30931 1.46516 -29
      vertex 8.30931 1.46516 29
    endloop
  endfacet
  facet normal -0.953717 -0.300706 0
    outer loop
      vertex 8.15 2.18379 -29
      vertex 7.92866 2.88579 29
      vertex 7.92866 2.88579 -29
    endloop
  endfacet
  facet normal -0.953717 -0.300706 0
    outer loop
      vertex 7.92866 2.88579 29
      vertex 8.15 2.18379 -29
      vertex 8.15 2.18379 29
    endloop
  endfacet
  facet normal -0.793351 -0.608765 0
    outer loop
      vertex 6.9116 4.83955 -29
      vertex 6.4635 5.42352 29
      vertex 6.4635 5.42352 -29
    endloop
  endfacet
  facet normal -0.793351 -0.608765 0
    outer loop
      vertex 6.4635 5.42352 29
      vertex 6.9116 4.83955 -29
      vertex 6.9116 4.83955 29
    endloop
  endfacet
  facet normal -0.843393 -0.537296 0
    outer loop
      vertex 7.30709 4.21875 -29
      vertex 6.9116 4.83955 29
      vertex 6.9116 4.83955 -29
    endloop
  endfacet
  facet normal -0.843393 -0.537296 0
    outer loop
      vertex 6.9116 4.83955 29
      vertex 7.30709 4.21875 -29
      vertex 7.30709 4.21875 29
    endloop
  endfacet
  facet normal -0.737273 -0.675595 0
    outer loop
      vertex 6.4635 5.42352 -29
      vertex 5.96621 5.96621 29
      vertex 5.96621 5.96621 -29
    endloop
  endfacet
  facet normal -0.737273 -0.675595 0
    outer loop
      vertex 5.96621 5.96621 29
      vertex 6.4635 5.42352 -29
      vertex 6.4635 5.42352 29
    endloop
  endfacet
  facet normal -0.608765 -0.793351 0
    outer loop
      vertex 4.83955 6.9116 -29
      vertex 5.42352 6.4635 29
      vertex 4.83955 6.9116 29
    endloop
  endfacet
  facet normal -0.608765 -0.793351 -0
    outer loop
      vertex 5.42352 6.4635 29
      vertex 4.83955 6.9116 -29
      vertex 5.42352 6.4635 -29
    endloop
  endfacet
  facet normal -0.0436232 -0.999048 0
    outer loop
      vertex 0 8.4375 -29
      vertex 0.735376 8.40539 29
      vertex 0 8.4375 29
    endloop
  endfacet
  facet normal -0.0436232 -0.999048 -0
    outer loop
      vertex 0.735376 8.40539 29
      vertex 0 8.4375 -29
      vertex 0.735376 8.40539 -29
    endloop
  endfacet
  facet normal -0.537296 -0.843393 0
    outer loop
      vertex 4.21875 7.30709 -29
      vertex 4.83955 6.9116 29
      vertex 4.21875 7.30709 29
    endloop
  endfacet
  facet normal -0.537296 -0.843393 -0
    outer loop
      vertex 4.83955 6.9116 29
      vertex 4.21875 7.30709 -29
      vertex 4.83955 6.9116 -29
    endloop
  endfacet
  facet normal -0.382688 -0.923878 0
    outer loop
      vertex 2.88579 7.92866 -29
      vertex 3.56584 7.64697 29
      vertex 2.88579 7.92866 29
    endloop
  endfacet
  facet normal -0.382688 -0.923878 -0
    outer loop
      vertex 3.56584 7.64697 29
      vertex 2.88579 7.92866 -29
      vertex 3.56584 7.64697 -29
    endloop
  endfacet
  facet normal -0.300706 -0.953717 0
    outer loop
      vertex 2.18379 8.15 -29
      vertex 2.88579 7.92866 29
      vertex 2.18379 8.15 29
    endloop
  endfacet
  facet normal -0.300706 -0.953717 -0
    outer loop
      vertex 2.88579 7.92866 29
      vertex 2.18379 8.15 -29
      vertex 2.88579 7.92866 -29
    endloop
  endfacet
  facet normal 0.999048 -0.0436232 0
    outer loop
      vertex -8.4375 0 29
      vertex -8.40539 0.735376 -29
      vertex -8.40539 0.735376 29
    endloop
  endfacet
  facet normal 0.999048 -0.0436232 0
    outer loop
      vertex -8.40539 0.735376 -29
      vertex -8.4375 0 29
      vertex -8.4375 0 -29
    endloop
  endfacet
  facet normal 0.923878 -0.382688 0
    outer loop
      vertex -7.92866 2.88579 29
      vertex -7.64697 3.56584 -29
      vertex -7.64697 3.56584 29
    endloop
  endfacet
  facet normal 0.923878 -0.382688 0
    outer loop
      vertex -7.64697 3.56584 -29
      vertex -7.92866 2.88579 29
      vertex -7.92866 2.88579 -29
    endloop
  endfacet
  facet normal 0.953717 -0.300706 0
    outer loop
      vertex -8.15 2.18379 29
      vertex -7.92866 2.88579 -29
      vertex -7.92866 2.88579 29
    endloop
  endfacet
  facet normal 0.953717 -0.300706 0
    outer loop
      vertex -7.92866 2.88579 -29
      vertex -8.15 2.18379 29
      vertex -8.15 2.18379 -29
    endloop
  endfacet
  facet normal 0.843393 -0.537296 0
    outer loop
      vertex -7.30709 4.21875 29
      vertex -6.9116 4.83955 -29
      vertex -6.9116 4.83955 29
    endloop
  endfacet
  facet normal 0.843393 -0.537296 0
    outer loop
      vertex -6.9116 4.83955 -29
      vertex -7.30709 4.21875 29
      vertex -7.30709 4.21875 -29
    endloop
  endfacet
  facet normal 0.793351 -0.608765 0
    outer loop
      vertex -6.9116 4.83955 29
      vertex -6.4635 5.42352 -29
      vertex -6.4635 5.42352 29
    endloop
  endfacet
  facet normal 0.793351 -0.608765 0
    outer loop
      vertex -6.4635 5.42352 -29
      vertex -6.9116 4.83955 29
      vertex -6.9116 4.83955 -29
    endloop
  endfacet
  facet normal 0.300706 -0.953717 0
    outer loop
      vertex -2.88579 7.92866 -29
      vertex -2.18379 8.15 29
      vertex -2.88579 7.92866 29
    endloop
  endfacet
  facet normal 0.300706 -0.953717 0
    outer loop
      vertex -2.18379 8.15 29
      vertex -2.88579 7.92866 -29
      vertex -2.18379 8.15 -29
    endloop
  endfacet
  facet normal 0.0436232 -0.999048 0
    outer loop
      vertex -0.735376 8.40539 -29
      vertex 0 8.4375 29
      vertex -0.735376 8.40539 29
    endloop
  endfacet
  facet normal 0.0436232 -0.999048 0
    outer loop
      vertex 0 8.4375 29
      vertex -0.735376 8.40539 -29
      vertex 0 8.4375 -29
    endloop
  endfacet
  facet normal 0.537296 -0.843393 0
    outer loop
      vertex -4.83955 6.9116 -29
      vertex -4.21875 7.30709 29
      vertex -4.83955 6.9116 29
    endloop
  endfacet
  facet normal 0.537296 -0.843393 0
    outer loop
      vertex -4.21875 7.30709 29
      vertex -4.83955 6.9116 -29
      vertex -4.21875 7.30709 -29
    endloop
  endfacet
  facet normal 0.608765 -0.793351 0
    outer loop
      vertex -5.42352 6.4635 -29
      vertex -4.83955 6.9116 29
      vertex -5.42352 6.4635 29
    endloop
  endfacet
  facet normal 0.608765 -0.793351 0
    outer loop
      vertex -4.83955 6.9116 29
      vertex -5.42352 6.4635 -29
      vertex -4.83955 6.9116 -29
    endloop
  endfacet
  facet normal 0.461745 -0.887013 0
    outer loop
      vertex -4.21875 7.30709 -29
      vertex -3.56584 7.64697 29
      vertex -4.21875 7.30709 29
    endloop
  endfacet
  facet normal 0.461745 -0.887013 0
    outer loop
      vertex -3.56584 7.64697 29
      vertex -4.21875 7.30709 -29
      vertex -3.56584 7.64697 -29
    endloop
  endfacet
  facet normal 0.675595 -0.737273 0
    outer loop
      vertex -5.96621 5.96621 -29
      vertex -5.42352 6.4635 29
      vertex -5.96621 5.96621 29
    endloop
  endfacet
  facet normal 0.675595 -0.737273 0
    outer loop
      vertex -5.42352 6.4635 29
      vertex -5.96621 5.96621 -29
      vertex -5.42352 6.4635 -29
    endloop
  endfacet
  facet normal -0.999048 -0.0436232 0
    outer loop
      vertex 8.4375 0 -29
      vertex 8.40539 0.735376 29
      vertex 8.40539 0.735376 -29
    endloop
  endfacet
  facet normal -0.999048 -0.0436232 0
    outer loop
      vertex 8.40539 0.735376 29
      vertex 8.4375 0 -29
      vertex 8.4375 0 29
    endloop
  endfacet
  facet normal -0.0436232 0.999048 0
    outer loop
      vertex 0.735376 -8.40539 -29
      vertex 0 -8.4375 29
      vertex 0.735376 -8.40539 29
    endloop
  endfacet
  facet normal -0.0436232 0.999048 0
    outer loop
      vertex 0 -8.4375 29
      vertex 0.735376 -8.40539 -29
      vertex 0 -8.4375 -29
    endloop
  endfacet
  facet normal -0.953717 0.300706 0
    outer loop
      vertex 7.92866 -2.88579 -29
      vertex 8.15 -2.18379 29
      vertex 8.15 -2.18379 -29
    endloop
  endfacet
  facet normal -0.953717 0.300706 0
    outer loop
      vertex 8.15 -2.18379 29
      vertex 7.92866 -2.88579 -29
      vertex 7.92866 -2.88579 29
    endloop
  endfacet
  facet normal -0.300706 0.953717 0
    outer loop
      vertex 2.88579 -7.92866 -29
      vertex 2.18379 -8.15 29
      vertex 2.88579 -7.92866 29
    endloop
  endfacet
  facet normal -0.300706 0.953717 0
    outer loop
      vertex 2.18379 -8.15 29
      vertex 2.88579 -7.92866 -29
      vertex 2.18379 -8.15 -29
    endloop
  endfacet
  facet normal -0.608765 0.793351 0
    outer loop
      vertex 5.42352 -6.4635 -29
      vertex 4.83955 -6.9116 29
      vertex 5.42352 -6.4635 29
    endloop
  endfacet
  facet normal -0.608765 0.793351 0
    outer loop
      vertex 4.83955 -6.9116 29
      vertex 5.42352 -6.4635 -29
      vertex 4.83955 -6.9116 -29
    endloop
  endfacet
  facet normal -0.461745 0.887013 0
    outer loop
      vertex 4.21875 -7.30709 -29
      vertex 3.56584 -7.64697 29
      vertex 4.21875 -7.30709 29
    endloop
  endfacet
  facet normal -0.461745 0.887013 0
    outer loop
      vertex 3.56584 -7.64697 29
      vertex 4.21875 -7.30709 -29
      vertex 3.56584 -7.64697 -29
    endloop
  endfacet
  facet normal 0.0436232 0.999048 -0
    outer loop
      vertex 0 -8.4375 -29
      vertex -0.735376 -8.40539 29
      vertex 0 -8.4375 29
    endloop
  endfacet
  facet normal 0.0436232 0.999048 0
    outer loop
      vertex -0.735376 -8.40539 29
      vertex 0 -8.4375 -29
      vertex -0.735376 -8.40539 -29
    endloop
  endfacet
  facet normal 0.382688 0.923878 -0
    outer loop
      vertex -2.88579 -7.92866 -29
      vertex -3.56584 -7.64697 29
      vertex -2.88579 -7.92866 29
    endloop
  endfacet
  facet normal 0.382688 0.923878 0
    outer loop
      vertex -3.56584 -7.64697 29
      vertex -2.88579 -7.92866 -29
      vertex -3.56584 -7.64697 -29
    endloop
  endfacet
  facet normal 0.537296 0.843393 -0
    outer loop
      vertex -4.21875 -7.30709 -29
      vertex -4.83955 -6.9116 29
      vertex -4.21875 -7.30709 29
    endloop
  endfacet
  facet normal 0.537296 0.843393 0
    outer loop
      vertex -4.83955 -6.9116 29
      vertex -4.21875 -7.30709 -29
      vertex -4.83955 -6.9116 -29
    endloop
  endfacet
  facet normal 0.953717 0.300706 0
    outer loop
      vertex -7.92866 -2.88579 29
      vertex -8.15 -2.18379 -29
      vertex -8.15 -2.18379 29
    endloop
  endfacet
  facet normal 0.953717 0.300706 0
    outer loop
      vertex -8.15 -2.18379 -29
      vertex -7.92866 -2.88579 29
      vertex -7.92866 -2.88579 -29
    endloop
  endfacet
  facet normal 0.999048 0.0436232 0
    outer loop
      vertex -8.40539 -0.735376 29
      vertex -8.4375 0 -29
      vertex -8.4375 0 29
    endloop
  endfacet
  facet normal 0.999048 0.0436232 0
    outer loop
      vertex -8.4375 0 -29
      vertex -8.40539 -0.735376 29
      vertex -8.40539 -0.735376 -29
    endloop
  endfacet
  facet normal 0.793351 0.608765 0
    outer loop
      vertex -6.4635 -5.42352 29
      vertex -6.9116 -4.83955 -29
      vertex -6.9116 -4.83955 29
    endloop
  endfacet
  facet normal 0.793351 0.608765 0
    outer loop
      vertex -6.9116 -4.83955 -29
      vertex -6.4635 -5.42352 29
      vertex -6.4635 -5.42352 -29
    endloop
  endfacet
  facet normal 0.887013 0.461745 0
    outer loop
      vertex -7.30709 -4.21875 29
      vertex -7.64697 -3.56584 -29
      vertex -7.64697 -3.56584 29
    endloop
  endfacet
  facet normal 0.887013 0.461745 0
    outer loop
      vertex -7.64697 -3.56584 -29
      vertex -7.30709 -4.21875 29
      vertex -7.30709 -4.21875 -29
    endloop
  endfacet
  facet normal 0.737273 0.675595 0
    outer loop
      vertex -5.96621 -5.96621 29
      vertex -6.4635 -5.42352 -29
      vertex -6.4635 -5.42352 29
    endloop
  endfacet
  facet normal 0.737273 0.675595 0
    outer loop
      vertex -6.4635 -5.42352 -29
      vertex -5.96621 -5.96621 29
      vertex -5.96621 -5.96621 -29
    endloop
  endfacet
  facet normal -0.991444 -0.130529 0
    outer loop
      vertex 8.40539 0.735376 -29
      vertex 8.30931 1.46516 29
      vertex 8.30931 1.46516 -29
    endloop
  endfacet
  facet normal -0.991444 -0.130529 0
    outer loop
      vertex 8.30931 1.46516 29
      vertex 8.40539 0.735376 -29
      vertex 8.40539 0.735376 29
    endloop
  endfacet
  facet normal -0.216431 -0.976298 0
    outer loop
      vertex 1.46516 8.30931 -29
      vertex 2.18379 8.15 29
      vertex 1.46516 8.30931 29
    endloop
  endfacet
  facet normal -0.216431 -0.976298 -0
    outer loop
      vertex 2.18379 8.15 29
      vertex 1.46516 8.30931 -29
      vertex 2.18379 8.15 -29
    endloop
  endfacet
  facet normal -0.130529 -0.991444 0
    outer loop
      vertex 0.735376 8.40539 -29
      vertex 1.46516 8.30931 29
      vertex 0.735376 8.40539 29
    endloop
  endfacet
  facet normal -0.130529 -0.991444 -0
    outer loop
      vertex 1.46516 8.30931 29
      vertex 0.735376 8.40539 -29
      vertex 1.46516 8.30931 -29
    endloop
  endfacet
  facet normal 0.976298 -0.216431 0
    outer loop
      vertex -8.30931 1.46516 29
      vertex -8.15 2.18379 -29
      vertex -8.15 2.18379 29
    endloop
  endfacet
  facet normal 0.976298 -0.216431 0
    outer loop
      vertex -8.15 2.18379 -29
      vertex -8.30931 1.46516 29
      vertex -8.30931 1.46516 -29
    endloop
  endfacet
  facet normal 0.991444 -0.130529 0
    outer loop
      vertex -8.40539 0.735376 29
      vertex -8.30931 1.46516 -29
      vertex -8.30931 1.46516 29
    endloop
  endfacet
  facet normal 0.991444 -0.130529 0
    outer loop
      vertex -8.30931 1.46516 -29
      vertex -8.40539 0.735376 29
      vertex -8.40539 0.735376 -29
    endloop
  endfacet
  facet normal 0.130529 -0.991444 0
    outer loop
      vertex -1.46516 8.30931 -29
      vertex -0.735376 8.40539 29
      vertex -1.46516 8.30931 29
    endloop
  endfacet
  facet normal 0.130529 -0.991444 0
    outer loop
      vertex -0.735376 8.40539 29
      vertex -1.46516 8.30931 -29
      vertex -0.735376 8.40539 -29
    endloop
  endfacet
  facet normal -0.130529 0.991444 0
    outer loop
      vertex 1.46516 -8.30931 -29
      vertex 0.735376 -8.40539 29
      vertex 1.46516 -8.30931 29
    endloop
  endfacet
  facet normal -0.130529 0.991444 0
    outer loop
      vertex 0.735376 -8.40539 29
      vertex 1.46516 -8.30931 -29
      vertex 0.735376 -8.40539 -29
    endloop
  endfacet
  facet normal -0.382688 0.923878 0
    outer loop
      vertex 3.56584 -7.64697 -29
      vertex 2.88579 -7.92866 29
      vertex 3.56584 -7.64697 29
    endloop
  endfacet
  facet normal -0.382688 0.923878 0
    outer loop
      vertex 2.88579 -7.92866 29
      vertex 3.56584 -7.64697 -29
      vertex 2.88579 -7.92866 -29
    endloop
  endfacet
  facet normal -0.675595 0.737273 0
    outer loop
      vertex 5.96621 -5.96621 -29
      vertex 5.42352 -6.4635 29
      vertex 5.96621 -5.96621 29
    endloop
  endfacet
  facet normal -0.675595 0.737273 0
    outer loop
      vertex 5.42352 -6.4635 29
      vertex 5.96621 -5.96621 -29
      vertex 5.42352 -6.4635 -29
    endloop
  endfacet
  facet normal -0.537296 0.843393 0
    outer loop
      vertex 4.83955 -6.9116 -29
      vertex 4.21875 -7.30709 29
      vertex 4.83955 -6.9116 29
    endloop
  endfacet
  facet normal -0.537296 0.843393 0
    outer loop
      vertex 4.21875 -7.30709 29
      vertex 4.83955 -6.9116 -29
      vertex 4.21875 -7.30709 -29
    endloop
  endfacet
  facet normal 0.216431 0.976298 -0
    outer loop
      vertex -1.46516 -8.30931 -29
      vertex -2.18379 -8.15 29
      vertex -1.46516 -8.30931 29
    endloop
  endfacet
  facet normal 0.216431 0.976298 0
    outer loop
      vertex -2.18379 -8.15 29
      vertex -1.46516 -8.30931 -29
      vertex -2.18379 -8.15 -29
    endloop
  endfacet
  facet normal 0.300706 0.953717 -0
    outer loop
      vertex -2.18379 -8.15 -29
      vertex -2.88579 -7.92866 29
      vertex -2.18379 -8.15 29
    endloop
  endfacet
  facet normal 0.300706 0.953717 0
    outer loop
      vertex -2.88579 -7.92866 29
      vertex -2.18379 -8.15 -29
      vertex -2.88579 -7.92866 -29
    endloop
  endfacet
  facet normal 0.461745 0.887013 -0
    outer loop
      vertex -3.56584 -7.64697 -29
      vertex -4.21875 -7.30709 29
      vertex -3.56584 -7.64697 29
    endloop
  endfacet
  facet normal 0.461745 0.887013 0
    outer loop
      vertex -4.21875 -7.30709 29
      vertex -3.56584 -7.64697 -29
      vertex -4.21875 -7.30709 -29
    endloop
  endfacet
  facet normal 0.608765 0.793351 -0
    outer loop
      vertex -4.83955 -6.9116 -29
      vertex -5.42352 -6.4635 29
      vertex -4.83955 -6.9116 29
    endloop
  endfacet
  facet normal 0.608765 0.793351 0
    outer loop
      vertex -5.42352 -6.4635 29
      vertex -4.83955 -6.9116 -29
      vertex -5.42352 -6.4635 -29
    endloop
  endfacet
  facet normal 0.923878 0.382688 0
    outer loop
      vertex -7.64697 -3.56584 29
      vertex -7.92866 -2.88579 -29
      vertex -7.92866 -2.88579 29
    endloop
  endfacet
  facet normal 0.923878 0.382688 0
    outer loop
      vertex -7.92866 -2.88579 -29
      vertex -7.64697 -3.56584 29
      vertex -7.64697 -3.56584 -29
    endloop
  endfacet
  facet normal 0.991444 0.130529 0
    outer loop
      vertex -8.30931 -1.46516 29
      vertex -8.40539 -0.735376 -29
      vertex -8.40539 -0.735376 29
    endloop
  endfacet
  facet normal 0.991444 0.130529 0
    outer loop
      vertex -8.40539 -0.735376 -29
      vertex -8.30931 -1.46516 29
      vertex -8.30931 -1.46516 -29
    endloop
  endfacet
  facet normal 0.843393 0.537296 0
    outer loop
      vertex -6.9116 -4.83955 29
      vertex -7.30709 -4.21875 -29
      vertex -7.30709 -4.21875 29
    endloop
  endfacet
  facet normal 0.843393 0.537296 0
    outer loop
      vertex -7.30709 -4.21875 -29
      vertex -6.9116 -4.83955 29
      vertex -6.9116 -4.83955 -29
    endloop
  endfacet
  facet normal -0.976298 0.216431 0
    outer loop
      vertex 8.15 -2.18379 -29
      vertex 8.30931 -1.46516 29
      vertex 8.30931 -1.46516 -29
    endloop
  endfacet
  facet normal -0.976298 0.216431 0
    outer loop
      vertex 8.30931 -1.46516 29
      vertex 8.15 -2.18379 -29
      vertex 8.15 -2.18379 29
    endloop
  endfacet
  facet normal -0.887013 0.461745 0
    outer loop
      vertex 7.30709 -4.21875 -29
      vertex 7.64697 -3.56584 29
      vertex 7.64697 -3.56584 -29
    endloop
  endfacet
  facet normal -0.887013 0.461745 0
    outer loop
      vertex 7.64697 -3.56584 29
      vertex 7.30709 -4.21875 -29
      vertex 7.30709 -4.21875 29
    endloop
  endfacet
  facet normal -0.843393 0.537296 0
    outer loop
      vertex 6.9116 -4.83955 -29
      vertex 7.30709 -4.21875 29
      vertex 7.30709 -4.21875 -29
    endloop
  endfacet
  facet normal -0.843393 0.537296 0
    outer loop
      vertex 7.30709 -4.21875 29
      vertex 6.9116 -4.83955 -29
      vertex 6.9116 -4.83955 29
    endloop
  endfacet
  facet normal -0.216431 0.976298 0
    outer loop
      vertex 2.18379 -8.15 -29
      vertex 1.46516 -8.30931 29
      vertex 2.18379 -8.15 29
    endloop
  endfacet
  facet normal -0.216431 0.976298 0
    outer loop
      vertex 1.46516 -8.30931 29
      vertex 2.18379 -8.15 -29
      vertex 1.46516 -8.30931 -29
    endloop
  endfacet
  facet normal 0.130529 0.991444 -0
    outer loop
      vertex -0.735376 -8.40539 -29
      vertex -1.46516 -8.30931 29
      vertex -0.735376 -8.40539 29
    endloop
  endfacet
  facet normal 0.130529 0.991444 0
    outer loop
      vertex -1.46516 -8.30931 29
      vertex -0.735376 -8.40539 -29
      vertex -1.46516 -8.30931 -29
    endloop
  endfacet
  facet normal 0.976298 0.216431 0
    outer loop
      vertex -8.15 -2.18379 29
      vertex -8.30931 -1.46516 -29
      vertex -8.30931 -1.46516 29
    endloop
  endfacet
  facet normal 0.976298 0.216431 0
    outer loop
      vertex -8.30931 -1.46516 -29
      vertex -8.15 -2.18379 29
      vertex -8.15 -2.18379 -29
    endloop
  endfacet
  facet normal -0.991444 0.130529 0
    outer loop
      vertex 8.30931 -1.46516 -29
      vertex 8.40539 -0.735376 29
      vertex 8.40539 -0.735376 -29
    endloop
  endfacet
  facet normal -0.991444 0.130529 0
    outer loop
      vertex 8.40539 -0.735376 29
      vertex 8.30931 -1.46516 -29
      vertex 8.30931 -1.46516 29
    endloop
  endfacet
  facet normal -0.793351 0.608765 0
    outer loop
      vertex 6.4635 -5.42352 -29
      vertex 6.9116 -4.83955 29
      vertex 6.9116 -4.83955 -29
    endloop
  endfacet
  facet normal -0.793351 0.608765 0
    outer loop
      vertex 6.9116 -4.83955 29
      vertex 6.4635 -5.42352 -29
      vertex 6.4635 -5.42352 29
    endloop
  endfacet
  facet normal -0.737273 0.675595 0
    outer loop
      vertex 5.96621 -5.96621 -29
      vertex 6.4635 -5.42352 29
      vertex 6.4635 -5.42352 -29
    endloop
  endfacet
  facet normal -0.737273 0.675595 0
    outer loop
      vertex 6.4635 -5.42352 29
      vertex 5.96621 -5.96621 -29
      vertex 5.96621 -5.96621 29
    endloop
  endfacet
endsolid OpenSCAD_Model
